<svg width="842" height="546" viewBox="0 0 842 546" fill="none" xmlns="http://www.w3.org/2000/svg">
<g style="mix-blend-mode:screen" opacity="0.3">
<path d="M842 359.178H819.825V328.28H842V283.061H819.825V252.163H842V198.902H724.947V328.068H708.807V37.4619H569.509V359.39H553.368V238.831H521.509V211.459H414V532.717L418.491 534.764C451.193 550 480.807 554.867 515.684 544.497C532.667 539.419 549.017 531.658 564.877 523.899C584.246 514.446 603.332 504.852 623.475 497.093C679.403 475.435 732.525 471.909 791.263 484.465C808.174 488.062 825.088 491.942 842 495.611V359.178ZM470 435.436H443.544V404.538H470.07V435.436H470ZM470 311.068H443.544V280.24H470.07V311.068H470ZM523.825 373.288H497.298V342.388H523.825V373.288ZM625.51 299.75H598.982V268.85H625.51V299.75ZM625.51 175.38H598.982V144.482H625.51V175.38ZM625.51 113.23H598.982V82.3324H625.51V113.23ZM679.333 361.898H652.806V331H679.333V361.898ZM679.333 299.75H652.806V268.85H679.333V299.75ZM679.333 237.53H652.806V206.702H679.333V237.53ZM679.333 175.38H652.806V144.482H679.333V175.38ZM784.105 435.226H757.58V404.328H784.105V435.226ZM784.105 283.061H757.58V252.163H784.105V283.061Z" fill="#FFF8BD"/>
</g>
<g style="mix-blend-mode:screen" opacity="0.3">
<path d="M625.51 31.2305H598.982V0.33252H625.51V31.2305Z" fill="#FFF8BD"/>
</g>
<g style="mix-blend-mode:screen" opacity="0.5">
<path d="M382.671 279.155V259.185H278.075V279.155H261.953V339.347H246.103V189.331H174.652V207.5H109.332V495.446H93.4844V293.58H-21.7223V420.69H0.327232V451.063H-21.7223V495.513H0.327232V525.888H-21.7223V588.299C-21.7223 589.616 -21.9294 590.865 -22.0675 592.113C-21.1719 592.113 -20.2763 592.252 -19.3788 592.252C-5.048 592.391 9.35378 589.201 23.2033 585.733C47.8704 579.492 71.504 568.257 96.4473 562.987C113.465 559.382 130.898 562.155 143.369 575.124C168.312 601.057 154.532 648.144 135.583 673.801C96.7215 726.644 24.7873 764.992 -41.3593 757.641C-59.5505 755.63 -81.8742 756.184 -98.7556 764.16C-103.097 766.17 -112.193 771.579 -112.95 777.127C-113.846 783.576 -102.409 792.523 -98.1361 795.435C-74.1574 811.661 -36.4673 818.526 -8.356 821.44C88.3163 831.425 163.006 792.66 232.461 728.862C259.816 703.759 284.138 676.298 310.735 650.571C331.751 630.253 359.381 605.842 390.8 610.073C393.627 610.488 396.313 611.045 399 611.807V279.155H382.671ZM61.5128 525.819H35.4668V495.446H61.5128V525.819ZM61.5128 376.239H35.4668V345.866H61.5128V376.239ZM162.87 526.025H136.824V495.652H162.87V526.025ZM162.87 464.933H136.824V434.558H162.87V464.933ZM162.87 342.676H136.824V312.303H162.87V342.676ZM215.717 403.77H189.672V373.466H215.717V403.77ZM215.717 281.583H189.672V251.209H215.717V281.583ZM317.006 526.025H290.96V495.652H317.006V526.025ZM317.006 403.77H290.96V373.466H317.006V403.77ZM317.006 342.676H290.96V312.303H317.006V342.676ZM369.855 464.933H343.809V434.558H369.855V464.933ZM369.855 403.77H343.809V373.466H369.855V403.77Z" fill="#FFF8BD"/>
</g>
</svg>
