<svg width="65" height="24" viewBox="0 0 65 24" fill="none" xmlns="http://www.w3.org/2000/svg">
<path d="M2.02492 6.36466L4.49874 2.89334V6.36466H5.77555V0.778622H4.65834L2.18452 4.24995V0.778622H0.907715V6.36466H2.02492Z" fill="#E35131"/>
<path d="M10.524 6.36466H11.8008V0.778622H10.524V2.91728H8.48908V0.778622H7.21227V6.36466H8.48908V4.11429H10.524V6.36466Z" fill="#E35131"/>
<path d="M13.2363 6.36466H14.5131V3.7073L16.4203 6.36466H18.0403L15.7739 3.35618L17.8727 0.778622H16.3405L14.5131 3.21254V0.778622H13.2363V6.36466Z" fill="#E35131"/>
<path d="M21.8977 6.36466H23.1745V0.778622H19.4718L19.392 1.89583C19.1685 4.99209 18.6897 5.16765 18.2269 5.08785L18.2029 6.36466C19.5117 6.58013 20.2139 5.97364 20.5491 3.029L20.6688 1.97563H21.8977V6.36466Z" fill="#E35131"/>
<path d="M24.6141 6.36466H25.8909V4.11429H26.5692C26.8006 5.57464 27.9577 6.46042 29.3383 6.46042C31.038 6.46042 32.2271 5.26342 32.2271 3.57164C32.2271 1.79209 31.038 0.682861 29.3383 0.682861C27.87 0.682861 26.8485 1.62451 26.5932 2.91728H25.8909V0.778622H24.6141V6.36466ZM27.8859 3.57164C27.8859 2.5502 28.5323 1.87987 29.3782 1.87987C30.2799 1.87987 30.8705 2.5502 30.8705 3.57164C30.8705 4.51329 30.4395 5.26342 29.3782 5.26342C28.5642 5.26342 27.8859 4.52925 27.8859 3.57164Z" fill="#E35131"/>
<path d="M34.7886 6.46042C35.7861 6.46042 36.7915 5.83 36.7915 4.80057C36.7915 4.16217 36.5362 3.67538 35.8738 3.4679V3.44396C36.3766 3.1088 36.5761 2.65394 36.5761 2.25493C36.5761 1.23349 35.8499 0.682861 34.8524 0.682861C34.0304 0.682861 33.3202 1.08186 32.9611 1.60057L33.6953 2.46241C33.9905 2.04745 34.3177 1.87987 34.6848 1.87987C35.0439 1.87987 35.2993 2.04745 35.2993 2.39857C35.2993 2.7497 34.9801 2.9093 34.613 2.9093H34.1342V4.10631H34.6449C35.2514 4.10631 35.5147 4.34571 35.5147 4.67289C35.5147 5.12775 35.0758 5.26342 34.7327 5.26342C34.2778 5.26342 33.807 4.95219 33.4798 4.58511L32.7856 5.45494C33.0808 5.90182 33.6554 6.46042 34.7886 6.46042Z" fill="#E35131"/>
<path d="M39.1041 6.36466L41.578 2.89334V6.36466H42.8548V0.778622H41.7376L39.2637 4.24995V0.778622H37.9869V6.36466H39.1041Z" fill="#E35131"/>
<path d="M44.2915 6.3487C44.6187 6.38062 45.3608 6.39658 45.8955 6.39658C47.1085 6.39658 48.0182 5.84596 48.0182 4.67289C48.0182 3.95469 47.6272 3.5477 47.2202 3.39608V3.38012C47.6351 3.1088 47.8586 2.71778 47.8586 2.13523C47.8586 1.36117 47.3159 0.746701 45.9833 0.746701C45.3768 0.746701 44.6027 0.778622 44.2915 0.794582V6.3487ZM46.0631 4.10631C46.478 4.10631 46.7414 4.25793 46.7414 4.60905C46.7414 4.98411 46.494 5.19957 45.9992 5.19957C45.7598 5.19957 45.6561 5.17564 45.5683 5.15169V4.10631H46.0631ZM45.9673 1.94371C46.2785 1.94371 46.5818 2.11129 46.5818 2.44645C46.5818 2.85344 46.3184 2.9891 45.9912 2.9891H45.5683V1.97563C45.7119 1.95967 45.8077 1.94371 45.9673 1.94371Z" fill="#E35131"/>
<path d="M52.5284 6.36466H53.8052V0.778622H52.5284V2.91728H50.4935V0.778622H49.2167V6.36466H50.4935V4.11429H52.5284V6.36466Z" fill="#E35131"/>
<path d="M54.5225 6.36466H55.8073L56.2701 5.1916H58.4806L58.9434 6.36466H60.308L57.9858 0.778622H56.8447L54.5225 6.36466ZM57.3794 2.41453L58.0018 3.99459H56.7489L57.3794 2.41453Z" fill="#E35131"/>
<path d="M63.4411 6.36466H64.7179V0.778622C64.3907 0.778622 63.5847 0.746701 63.2336 0.746701C61.5019 0.746701 60.8316 1.71229 60.8316 2.76566C60.8316 3.52376 61.2226 4.01055 61.6934 4.28985L60.3847 6.36466H61.8131L62.8745 4.56915H63.4411V6.36466ZM62.7708 3.37214C62.4675 3.3083 62.1882 3.09284 62.1882 2.67788C62.1882 2.21503 62.5553 1.94371 62.9782 1.94371C63.066 1.94371 63.3613 1.95967 63.4411 1.97563V3.37214H62.7708Z" fill="#E35131"/>
<path d="M21.0887 12.8365C20.7136 13.1158 20.2747 13.2435 19.8757 13.2435C18.8702 13.2435 18.1839 12.5412 18.1839 11.5517C18.1839 10.4505 18.8862 9.85993 19.748 9.85993C20.2747 9.85993 20.5859 10.0195 20.8892 10.2031L21.4557 9.24547C21.1206 8.91828 20.4902 8.66292 19.748 8.66292C17.8248 8.66292 16.8273 9.94771 16.8273 11.5517C16.8273 13.2914 18.0243 14.4405 19.756 14.4405C20.5141 14.4405 21.2403 14.1692 21.5754 13.7941L21.0887 12.8365Z" fill="#E35131"/>
<path d="M21.817 9.95569H23.4928V14.3447H24.7697V9.95569H26.4455V8.75868H21.817V9.95569Z" fill="#E35131"/>
<path d="M28.5172 14.3447V12.4455C28.7167 12.4694 29.0199 12.4694 29.1396 12.4694C30.4324 12.4694 31.2064 11.5916 31.2064 10.5941C31.2064 9.62851 30.6478 8.74272 28.9481 8.74272C28.5172 8.74272 27.5516 8.75868 27.2404 8.75868V14.3447H28.5172ZM29.0758 9.93973C29.5306 9.93973 29.8498 10.0914 29.8498 10.5861C29.8498 11.1288 29.4349 11.2724 29.0997 11.2724C28.9162 11.2724 28.7007 11.2564 28.5172 11.2325V9.95569C28.7805 9.94771 28.9082 9.93973 29.0758 9.93973Z" fill="#E35131"/>
<path d="M31.5253 14.3447H32.8101L33.2729 13.1717H35.4834L35.9462 14.3447H37.3108L34.9886 8.75868H33.8475L31.5253 14.3447ZM34.3821 10.3946L35.0046 11.9746H33.7517L34.3821 10.3946Z" fill="#E35131"/>
<path d="M41.3376 14.3447H42.6144V8.75868H41.3376V10.8973H39.3027V8.75868H38.0259V14.3447H39.3027V12.0943H41.3376V14.3447Z" fill="#E35131"/>
<path d="M43.3317 14.3447H44.6165L45.0793 13.1717H47.2898L47.7527 14.3447H49.1172L46.7951 8.75868H45.6539L43.3317 14.3447ZM46.1886 10.3946L46.811 11.9746H45.5581L46.1886 10.3946Z" fill="#E35131"/>
<path d="M2.66423 19.3899H3.14755L3.43209 18.6984H4.59752L4.88205 19.3899H5.39266L4.23892 16.6778H3.81796L2.66423 19.3899ZM4.01675 17.292L4.41432 18.2541H3.61528L4.01675 17.292Z" fill="#E35131"/>
<path d="M7.69562 18.7718C7.50853 18.9147 7.27856 18.9881 7.04859 18.9881C6.49121 18.9881 6.10534 18.6018 6.10534 18.0377C6.10534 17.4505 6.48732 17.0873 6.99402 17.0873C7.26687 17.0873 7.44616 17.1607 7.60987 17.2689L7.82424 16.9173C7.64495 16.755 7.34872 16.643 6.99402 16.643C6.09364 16.643 5.59863 17.2611 5.59863 18.0377C5.59863 18.8799 6.1716 19.4324 7.00572 19.4324C7.36041 19.4324 7.70731 19.3088 7.87881 19.1272L7.69562 18.7718Z" fill="#E35131"/>
<path d="M10.2497 18.7718C10.0626 18.9147 9.83265 18.9881 9.60268 18.9881C9.04531 18.9881 8.65943 18.6018 8.65943 18.0377C8.65943 17.4505 9.04141 17.0873 9.54811 17.0873C9.82096 17.0873 10.0003 17.1607 10.164 17.2689L10.3783 16.9173C10.199 16.755 9.90281 16.643 9.54811 16.643C8.64773 16.643 8.15272 17.2611 8.15272 18.0377C8.15272 18.8799 8.72569 19.4324 9.55981 19.4324C9.9145 19.4324 10.2614 19.3088 10.4329 19.1272L10.2497 18.7718Z" fill="#E35131"/>
<path d="M10.7068 18.0377C10.7068 18.8799 11.3149 19.4324 12.1256 19.4324C12.9363 19.4324 13.5483 18.849 13.5483 18.0377C13.5483 17.1955 12.9363 16.643 12.1256 16.643C11.2876 16.643 10.7068 17.2534 10.7068 18.0377ZM11.2135 18.0377C11.2135 17.4775 11.6033 17.0873 12.1256 17.0873C12.6401 17.0873 13.0416 17.4775 13.0416 18.0377C13.0416 18.5709 12.6986 18.9881 12.1256 18.9881C11.615 18.9881 11.2135 18.5786 11.2135 18.0377Z" fill="#E35131"/>
<path d="M14.1031 19.3899H16.1806V19.8729H16.6288V18.9456H16.2585V16.6855H15.7791V18.9456H14.5825V16.6855H14.1031V19.3899Z" fill="#E35131"/>
<path d="M17.5235 19.3899L18.9539 17.4698V19.3899H19.4334V16.6855H19.0124L17.5819 18.6095V16.6855H17.1025V19.3899H17.5235Z" fill="#E35131"/>
<path d="M19.8387 19.3899H20.322L20.6066 18.6984H21.772L22.0565 19.3899H22.5671L21.4134 16.6778H20.9924L19.8387 19.3899ZM21.1912 17.292L21.5888 18.2541H20.7897L21.1912 17.292Z" fill="#E35131"/>
<path d="M22.9758 19.3899H25.0533V19.8729H25.5015V18.9456H25.1312V16.6855H24.6518V18.9456H23.4552V16.6855H22.9758V19.3899Z" fill="#E35131"/>
<path d="M26.3962 19.3899L27.8266 17.4698V19.3899H28.3061V16.6855H27.8851L26.4546 18.6095V16.6855H25.9752V19.3899H26.3962Z" fill="#E35131"/>
<path d="M30.2939 19.3899H30.7694V16.6855C30.6096 16.6855 30.2666 16.6739 30.0912 16.6739C29.2961 16.6739 28.9687 17.1105 28.9687 17.6089C28.9687 17.9836 29.1947 18.2309 29.4481 18.3584L28.7504 19.3899H29.2883L29.9002 18.455H30.2939V19.3899ZM29.8573 18.0107C29.6625 17.972 29.4754 17.8213 29.4754 17.5779C29.4754 17.3075 29.678 17.1182 29.9938 17.1182C30.0756 17.1182 30.2276 17.1259 30.2939 17.1298V18.0107H29.8573Z" fill="#E35131"/>
<path d="M32.3509 19.3899H32.8304V17.4466L33.6996 18.6365H33.7697L34.6311 17.435V19.3899H35.1066V16.6855H34.6545L33.7658 17.9488L32.8343 16.6855H32.3509V19.3899Z" fill="#E35131"/>
<path d="M35.6616 18.0377C35.6616 18.8799 36.2696 19.4324 37.0803 19.4324C37.8911 19.4324 38.503 18.849 38.503 18.0377C38.503 17.1955 37.8911 16.643 37.0803 16.643C36.2423 16.643 35.6616 17.2534 35.6616 18.0377ZM36.1683 18.0377C36.1683 17.4775 36.558 17.0873 37.0803 17.0873C37.5948 17.0873 37.9963 17.4775 37.9963 18.0377C37.9963 18.5709 37.6533 18.9881 37.0803 18.9881C36.5697 18.9881 36.1683 18.5786 36.1683 18.0377Z" fill="#E35131"/>
<path d="M40.6676 19.3899H41.1431V16.6855H39.4242L39.3852 17.2264C39.2644 18.8568 38.9876 18.9456 38.7772 18.9186L38.7655 19.3899C39.3034 19.4672 39.6581 19.2122 39.8179 17.6398L39.8724 17.1298H40.6676V19.3899Z" fill="#E35131"/>
<path d="M41.6947 18.0377C41.6947 18.8799 42.3027 19.4324 43.1135 19.4324C43.9242 19.4324 44.5362 18.849 44.5362 18.0377C44.5362 17.1955 43.9242 16.643 43.1135 16.643C42.2755 16.643 41.6947 17.2534 41.6947 18.0377ZM42.2014 18.0377C42.2014 17.4775 42.5912 17.0873 43.1135 17.0873C43.628 17.0873 44.0294 17.4775 44.0294 18.0377C44.0294 18.5709 43.6864 18.9881 43.1135 18.9881C42.6029 18.9881 42.2014 18.5786 42.2014 18.0377Z" fill="#E35131"/>
<path d="M44.7596 19.8729H45.2079V19.3899H47.1139V19.8729H47.5621V18.9456H47.1918V16.6855H45.5002L45.4729 17.2264C45.4261 18.2347 45.165 18.8065 45.052 18.9456H44.7596V19.8729ZM45.9212 17.6011L45.964 17.1298H46.7163V18.9456H45.5782C45.6756 18.8259 45.8705 18.3004 45.9212 17.6011Z" fill="#E35131"/>
<path d="M48.0371 19.3899H49.6547V18.9456H48.5165V18.2463H49.4987V17.802H48.5165V17.1298H49.6157V16.6855H48.0371V19.3899Z" fill="#E35131"/>
<path d="M51.0079 17.9798L49.94 19.3899H50.4895L51.5224 17.9875V19.3899H51.998V17.9875L53.027 19.3899H53.5805L52.5125 17.9759L53.5376 16.6855H52.9841L51.998 17.9759V16.6855H51.5224V17.9759L50.5324 16.6855H49.9828L51.0079 17.9798Z" fill="#E35131"/>
<path d="M55.7246 19.3899H56.2001V16.6855H55.7246V17.7904H54.4773V16.6855H53.9979V19.3899H54.4773V18.2347H55.7246V19.3899Z" fill="#E35131"/>
<path d="M59.0914 19.3899H59.567V16.6855H59.0914V19.3899ZM57.7 18.0377C58.0352 18.0377 58.23 18.1884 58.23 18.4781C58.23 18.795 58.043 18.9534 57.6922 18.9534C57.5986 18.9534 57.5207 18.9456 57.4349 18.9418V18.057C57.544 18.0454 57.6259 18.0377 57.7 18.0377ZM57.4349 16.6855H56.9555V19.3899C57.1153 19.3899 57.3764 19.3977 57.6337 19.3977C58.3314 19.3977 58.7368 19.0384 58.7368 18.4666C58.7368 17.9373 58.4132 17.5934 57.7389 17.5934C57.661 17.5934 57.5557 17.5973 57.4349 17.6127V16.6855Z" fill="#E35131"/>
<path d="M62.4796 16.6855H61.9183L61.2596 17.6629L60.5892 16.6855H60.0279L60.94 18.0107L59.985 19.3899H60.5463L61.2479 18.3738L61.9534 19.3899H62.5147L61.5597 18.0107L62.4796 16.6855Z" fill="#E35131"/>
<path d="M6.42591 23.2534L7.85638 21.3333V23.2534H8.33581V20.549H7.91485L6.48438 22.473V20.549H6.00495V23.2534H6.42591Z" fill="#E35131"/>
<path d="M9.58662 23.7364H10.0349V23.2534H11.9409V23.7364H12.3891V22.8091H12.0188V20.549H10.3272L10.2999 21.0899C10.2531 22.0982 9.99199 22.67 9.87895 22.8091H9.58662V23.7364ZM10.7481 21.4646L10.791 20.9933H11.5433V22.8091H10.4051C10.5026 22.6894 10.6975 22.1639 10.7481 21.4646Z" fill="#E35131"/>
<path d="M12.8641 23.2534H14.4816V22.8091H13.3435V22.1098H14.3257V21.6655H13.3435V20.9933H14.4427V20.549H12.8641V23.2534Z" fill="#E35131"/>
<path d="M14.7669 20.9933H15.6517V23.2534H16.1312V20.9933H17.0159V20.549H14.7669V20.9933Z" fill="#E35131"/>
<path d="M19.3261 22.6353C19.139 22.7782 18.909 22.8516 18.679 22.8516C18.1217 22.8516 17.7358 22.4653 17.7358 21.9012C17.7358 21.314 18.1178 20.9508 18.6245 20.9508C18.8973 20.9508 19.0766 21.0242 19.2403 21.1324L19.4547 20.7808C19.2754 20.6185 18.9792 20.5065 18.6245 20.5065C17.7241 20.5065 17.2291 21.1246 17.2291 21.9012C17.2291 22.7434 17.802 23.2959 18.6362 23.2959C18.9909 23.2959 19.3378 23.1723 19.5093 22.9907L19.3261 22.6353Z" fill="#E35131"/>
<path d="M19.9858 23.2534H20.4653V21.8587L21.58 23.2534H22.1881L20.9954 21.8085L22.1179 20.549H21.5411L20.4653 21.8317V20.549H19.9858V23.2534Z" fill="#E35131"/>
<path d="M23.0256 23.2534L24.4561 21.3333V23.2534H24.9355V20.549H24.5145L23.0841 22.473V20.549H22.6047V23.2534H23.0256Z" fill="#E35131"/>
<path d="M27.8471 20.549H27.2858L26.6271 21.5264L25.9567 20.549H25.3954L26.3075 21.8742L25.3525 23.2534H25.9138L26.6154 22.2373L27.3209 23.2534H27.8822L26.9272 21.8742L27.8471 20.549Z" fill="#E35131"/>
<path d="M28.9223 21.9012C28.9223 22.7434 29.5304 23.2959 30.3411 23.2959C31.1518 23.2959 31.7638 22.7125 31.7638 21.9012C31.7638 21.059 31.1518 20.5065 30.3411 20.5065C29.5031 20.5065 28.9223 21.1169 28.9223 21.9012ZM29.429 21.9012C29.429 21.341 29.8188 20.9508 30.3411 20.9508C30.8556 20.9508 31.2571 21.341 31.2571 21.9012C31.2571 22.4344 30.9141 22.8516 30.3411 22.8516C29.8305 22.8516 29.429 22.4421 29.429 21.9012Z" fill="#E35131"/>
<path d="M32.3186 23.2534C32.4784 23.2534 32.7122 23.2689 33.028 23.2689C33.6984 23.2689 34.0804 22.9482 34.0804 22.388C34.0804 21.8896 33.7335 21.5728 33.1644 21.5728C33.0669 21.5728 32.9032 21.5805 32.798 21.596V20.9933H33.9128V20.549H32.3186V23.2534ZM33.1254 22.0171C33.4606 22.0171 33.6048 22.191 33.6048 22.4228C33.6048 22.6623 33.4567 22.8246 33.102 22.8246C33.0007 22.8246 32.9071 22.8169 32.798 22.8091V22.0403C32.9188 22.0248 33.0358 22.0171 33.1254 22.0171Z" fill="#E35131"/>
<path d="M34.362 20.9933H34.9623V23.2534C35.1221 23.2534 35.391 23.2612 35.6483 23.2612C36.3771 23.2612 36.7825 22.9019 36.7825 22.3301C36.7825 21.8008 36.459 21.4569 35.7535 21.4569C35.6755 21.4569 35.5625 21.4608 35.4378 21.4762V20.549H34.362V20.9933ZM35.7145 21.9012C36.0497 21.9012 36.2758 22.0364 36.2758 22.3416C36.2758 22.6739 36.0575 22.8169 35.7067 22.8169C35.6132 22.8169 35.5274 22.8091 35.4378 22.8053V21.9205C35.5469 21.9089 35.6405 21.9012 35.7145 21.9012Z" fill="#E35131"/>
<path d="M37.3354 23.2534H38.953V22.8091H37.8148V22.1098H38.7971V21.6655H37.8148V20.9933H38.914V20.549H37.3354V23.2534Z" fill="#E35131"/>
<path d="M39.2461 23.7364H39.6943V23.2534H41.6003V23.7364H42.0485V22.8091H41.6783V20.549H39.9866L39.9594 21.0899C39.9126 22.0982 39.6514 22.67 39.5384 22.8091H39.2461V23.7364ZM40.4076 21.4646L40.4505 20.9933H41.2027V22.8091H40.0646C40.162 22.6894 40.3569 22.1639 40.4076 21.4646Z" fill="#E35131"/>
<path d="M42.9445 23.2534L44.375 21.3333V23.2534H44.8544V20.549H44.4334L43.0029 22.473V20.549H42.5235V23.2534H42.9445Z" fill="#E35131"/>
<path d="M47.3372 23.2534H47.8127V20.549H47.3372V21.6539H46.0899V20.549H45.6105V23.2534H46.0899V22.0982H47.3372V23.2534Z" fill="#E35131"/>
<path d="M48.5681 23.2534H50.1856V22.8091H49.0475V22.1098H50.0297V21.6655H49.0475V20.9933H50.1467V20.549H48.5681V23.2534Z" fill="#E35131"/>
<path d="M52.5368 23.2534H53.0123V20.549H52.5368V21.6539H51.2895V20.549H50.8101V23.2534H51.2895V22.0982H52.5368V23.2534Z" fill="#E35131"/>
<path d="M54.1886 23.2534L55.6191 21.3333V23.2534H56.0985V20.549H55.6775L54.247 22.473V20.549H53.7676V23.2534H54.1886Z" fill="#E35131"/>
<path d="M57.2756 23.2534L58.706 21.3333V23.2534H59.1855V20.549H58.7645L57.334 22.473V20.549H56.8546V23.2534H57.2756ZM57.2873 19.8922C57.3145 20.2206 57.5991 20.4447 58.0668 20.4447C58.4956 20.4447 58.8152 20.2244 58.8269 19.8922H58.3786C58.363 20.0583 58.2422 20.1163 58.0668 20.1163C57.8719 20.1163 57.7667 20.0429 57.7355 19.8922H57.2873Z" fill="#E35131"/>
</svg>
