<svg width="361" height="124" viewBox="0 0 361 124" fill="none" xmlns="http://www.w3.org/2000/svg">
<path d="M162.848 42.7726V51.526H158.137V46.9439H142.625V51.526H137.915L137.946 42.7726H138.825C140.144 42.7306 141.076 41.7614 141.62 39.8654C142.164 37.9693 142.499 35.2621 142.625 31.744L142.876 24.8235H159.77V42.7726H162.848ZM147.115 32.218C147.011 34.8513 146.791 37.0634 146.456 38.8542C146.121 40.6238 145.608 41.9299 144.917 42.7726H154.746V28.9948H147.209L147.115 32.218Z" fill="white"/>
<path d="M176.76 47.3232C174.479 47.3232 172.416 46.828 170.574 45.8379C168.753 44.8479 167.319 43.489 166.272 41.7614C165.246 40.013 164.733 38.0537 164.733 35.8837C164.733 33.7138 165.246 31.7652 166.272 30.0376C167.319 28.2892 168.753 26.9196 170.574 25.9296C172.416 24.9395 174.479 24.4443 176.76 24.4443C179.042 24.4443 181.094 24.9395 182.915 25.9296C184.736 26.9196 186.17 28.2892 187.217 30.0376C188.264 31.7652 188.787 33.7138 188.787 35.8837C188.787 38.0537 188.264 40.013 187.217 41.7614C186.17 43.489 184.736 44.8479 182.915 45.8379C181.094 46.828 179.042 47.3232 176.76 47.3232ZM176.76 42.9623C178.058 42.9623 179.231 42.6674 180.277 42.0775C181.324 41.4666 182.141 40.6238 182.727 39.5494C183.334 38.475 183.637 37.253 183.637 35.8837C183.637 34.5145 183.334 33.2925 182.727 32.2181C182.141 31.1437 181.324 30.3116 180.277 29.7216C179.231 29.1108 178.058 28.8052 176.76 28.8052C175.462 28.8052 174.29 29.1108 173.243 29.7216C172.197 30.3116 171.37 31.1437 170.763 32.2181C170.177 33.2925 169.883 34.5145 169.883 35.8837C169.883 37.253 170.177 38.475 170.763 39.5494C171.37 40.6238 172.197 41.4666 173.243 42.0775C174.29 42.6674 175.462 42.9623 176.76 42.9623Z" fill="white"/>
<path d="M203.1 47.3232C200.86 47.3232 198.829 46.8387 197.008 45.8695C195.208 44.8795 193.784 43.5206 192.737 41.7931C191.712 40.0446 191.199 38.0746 191.199 35.8837C191.199 33.6929 191.712 31.7336 192.737 30.006C193.784 28.2576 195.208 26.8987 197.008 25.9296C198.829 24.9395 200.87 24.4443 203.131 24.4443C205.037 24.4443 206.753 24.7815 208.281 25.4556C209.83 26.1296 211.128 27.0988 212.175 28.3628L208.909 31.3965C207.423 29.6689 205.581 28.8052 203.383 28.8052C202.022 28.8052 200.808 29.1108 199.74 29.7216C198.672 30.3116 197.835 31.1437 197.228 32.2181C196.642 33.2925 196.349 34.5145 196.349 35.8837C196.349 37.253 196.642 38.475 197.228 39.5494C197.835 40.6238 198.672 41.4666 199.74 42.0775C200.808 42.6674 202.022 42.9623 203.383 42.9623C205.581 42.9623 207.423 42.0879 208.909 40.3394L212.175 43.3731C211.128 44.6583 209.83 45.6379 208.281 46.3119C206.732 46.986 205.005 47.3232 203.1 47.3232Z" fill="white"/>
<path d="M232.076 28.9948H225.042V46.9439H220.018V28.9948H213.015V24.8235H232.076V28.9948Z" fill="white"/>
<path d="M254.166 24.8235L244.809 42.3302C243.908 44.0155 242.818 45.2902 241.542 46.1539C240.286 47.0176 238.915 47.4495 237.428 47.4495C236.277 47.4495 235.084 47.1967 233.848 46.6911L235.073 42.8042C235.952 43.0782 236.685 43.215 237.271 43.215C237.899 43.215 238.464 43.0675 238.967 42.7726C239.469 42.4566 239.93 41.9722 240.349 41.319L240.537 41.0662L231.87 24.8235H237.303L243.144 36.7053L249.173 24.8235H254.166Z" fill="white"/>
<path d="M276.616 24.8235V46.9439H271.561V28.9948H261.638V46.9439H256.582V24.8235H276.616Z" fill="white"/>
<path d="M302.226 24.8235V46.9439H297.139V37.8745H287.153V46.9439H282.066V24.8235H287.153V33.5453H297.139V24.8235H302.226Z" fill="white"/>
<path d="M318.378 32.0916C321.059 32.0916 323.11 32.692 324.533 33.8929C325.977 35.0937 326.7 36.8738 326.7 39.2334C326.7 41.7403 325.905 43.6574 324.313 44.9847C322.743 46.2907 320.526 46.9439 317.656 46.9439H307.733V24.8235H312.789V32.0916H318.378ZM317.373 43.1518C318.692 43.1518 319.719 42.8254 320.451 42.1722C321.204 41.5191 321.581 40.571 321.581 39.3282C321.581 37.0318 320.18 35.8837 317.373 35.8837H312.789V43.1518H317.373ZM329.494 24.8235H334.55V46.9439H329.494V24.8235Z" fill="white"/>
<path d="M340.024 24.8236H345.08V39.2334L355.568 24.8236H360.341V46.944H355.317V32.5657L344.828 46.944H340.024V24.8236ZM350.167 23.4015C346.147 23.4015 344.118 21.7899 344.075 18.5667H347.56C347.604 20.1046 348.471 20.8735 350.167 20.8735C351.005 20.8735 351.643 20.6839 352.082 20.3047C352.522 19.9043 352.754 19.3251 352.773 18.5667H356.259C356.239 20.1467 355.725 21.3475 354.72 22.1691C353.715 22.9907 352.198 23.4015 350.167 23.4015Z" fill="white"/>
<path d="M155.656 67.4017H145.2L145.231 85.3509H140.175V63.2305H155.688L155.656 67.4017Z" fill="white"/>
<path d="M167.039 85.7302C164.757 85.7302 162.695 85.235 160.853 84.2449C159.032 83.2549 157.598 81.896 156.551 80.1685C155.525 78.42 155.012 76.4607 155.012 74.2907C155.012 72.1207 155.525 70.1722 156.551 68.4446C157.598 66.6961 159.032 65.3266 160.853 64.3365C162.695 63.3465 164.757 62.8513 167.039 62.8513C169.321 62.8513 171.373 63.3465 173.194 64.3365C175.015 65.3266 176.449 66.6961 177.496 68.4446C178.543 70.1722 179.066 72.1207 179.066 74.2907C179.066 76.4607 178.543 78.42 177.496 80.1685C176.449 81.896 175.015 83.2549 173.194 84.2449C171.373 85.235 169.321 85.7302 167.039 85.7302ZM167.039 81.3693C168.337 81.3693 169.509 81.0744 170.556 80.4845C171.603 79.8736 172.419 79.0308 173.005 77.9564C173.612 76.882 173.916 75.66 173.916 74.2907C173.916 72.9215 173.612 71.6995 173.005 70.6251C172.419 69.5507 171.603 68.7186 170.556 68.1286C169.509 67.5178 168.337 67.2122 167.039 67.2122C165.741 67.2122 164.569 67.5178 163.522 68.1286C162.475 68.7186 161.649 69.5507 161.041 70.6251C160.455 71.6995 160.162 72.9215 160.162 74.2907C160.162 75.66 160.455 76.882 161.041 77.9564C161.649 79.0308 162.475 79.8736 163.522 80.4845C164.569 81.0744 165.741 81.3693 167.039 81.3693Z" fill="white"/>
<path d="M192.5 63.2305C194.447 63.2305 196.132 63.5569 197.555 64.2101C199 64.8632 200.109 65.7901 200.884 66.9909C201.658 68.1918 202.046 69.6138 202.046 71.257C202.046 72.8791 201.658 74.3011 200.884 75.5231C200.109 76.7239 199 77.6508 197.555 78.304C196.132 78.936 194.447 79.252 192.5 79.252H188.072V85.3509H182.985V63.2305H192.5ZM192.217 75.0807C193.745 75.0807 194.907 74.7542 195.703 74.1011C196.498 73.427 196.896 72.479 196.896 71.257C196.896 70.0141 196.498 69.0661 195.703 68.413C194.907 67.7389 193.745 67.4017 192.217 67.4017H188.072V75.0807H192.217Z" fill="white"/>
<path d="M216.197 85.7302C213.915 85.7302 211.853 85.235 210.011 84.2449C208.189 83.2549 206.755 81.896 205.709 80.1685C204.683 78.42 204.17 76.4607 204.17 74.2907C204.17 72.1207 204.683 70.1722 205.709 68.4446C206.755 66.6961 208.189 65.3266 210.011 64.3365C211.853 63.3465 213.915 62.8513 216.197 62.8513C218.479 62.8513 220.53 63.3465 222.352 64.3365C224.173 65.3266 225.607 66.6961 226.654 68.4446C227.7 70.1722 228.224 72.1207 228.224 74.2907C228.224 76.4607 227.7 78.42 226.654 80.1685C225.607 81.896 224.173 83.2549 222.352 84.2449C220.53 85.235 218.479 85.7302 216.197 85.7302ZM216.197 81.3693C217.495 81.3693 218.667 81.0744 219.714 80.4845C220.76 79.8736 221.577 79.0308 222.163 77.9564C222.77 76.882 223.074 75.66 223.074 74.2907C223.074 72.9215 222.77 71.6995 222.163 70.6251C221.577 69.5507 220.76 68.7186 219.714 68.1286C218.667 67.5178 217.495 67.2122 216.197 67.2122C214.899 67.2122 213.726 67.5178 212.68 68.1286C211.633 68.7186 210.806 69.5507 210.199 70.6251C209.613 71.6995 209.32 72.9215 209.32 74.2907C209.32 75.66 209.613 76.882 210.199 77.9564C210.806 79.0308 211.633 79.8736 212.68 80.4845C213.726 81.0744 214.899 81.3693 216.197 81.3693Z" fill="white"/>
<path d="M254.2 81.1796V89.933H249.49V85.3509H233.978V89.933H229.268L229.299 81.1796H230.179C231.498 81.1376 232.429 80.1684 232.973 78.2723C233.518 76.3763 233.853 73.6691 233.978 70.151L234.23 63.2305H251.123V81.1796H254.2ZM238.469 70.625C238.364 73.2583 238.144 75.4703 237.809 77.2611C237.474 79.0308 236.962 80.3368 236.271 81.1796H246.098V67.4017H238.563L238.469 70.625Z" fill="white"/>
<path d="M53.8884 55.9553H51.1458V52.1318H53.8884V46.5363H51.1458V42.7129H53.8884V36.1222H39.4116V52.1056H37.4155V29.5228L20.1874 16.8303V55.9815H18.1913V41.0631H14.251V37.676H0.95459V77.4296L1.51005 77.6828C5.55451 79.5682 9.21707 80.1705 13.5306 78.8873C15.6309 78.259 17.6531 77.2985 19.6146 76.3384C22.0101 75.1687 24.3706 73.9815 26.8618 73.0213C33.7789 70.3413 40.3489 69.905 47.6133 71.4587C49.7049 71.9038 51.7968 72.3839 53.8884 72.838V55.9553ZM7.88051 65.3917H4.60849V61.5682H7.88918V65.3917H7.88051ZM7.88051 50.0019H4.60849V46.1873H7.88918V50.0019H7.88051ZM14.5374 57.7013H11.2567V53.8776H14.5374V57.7013ZM27.1135 57.7013H23.8327V53.8776H27.1135V57.7013ZM27.1135 42.3113H23.8327V38.4879H27.1135V42.3113ZM27.1135 34.6207H23.8327V30.7973H27.1135V34.6207ZM33.7702 65.3917H30.4894V61.5682H33.7702V65.3917ZM33.7702 57.7013H30.4894V53.8776H33.7702V57.7013ZM33.7702 50.0019H30.4894V46.1873H33.7702V50.0019ZM33.7702 42.3113H30.4894V38.4879H33.7702V42.3113ZM46.728 65.3657H43.4475V61.5422H46.728V65.3657ZM46.728 46.5363H43.4475V42.7129H46.728V46.5363Z" fill="white"/>
<path d="M110.302 34.315V31.8011H97.1272V34.315H95.0965V41.8921H93.1V15.2874H84.1V17.5745H75.8723V61.5421H73.8761V36.1309H59.3646V52.1317H62.142V55.9551H59.3646V61.5506H62.142V65.3743H59.3646V73.2307C59.3646 73.3965 59.3385 73.5537 59.3211 73.7108C59.4339 73.7108 59.5467 73.7283 59.6598 73.7283C61.4649 73.7458 63.2789 73.3442 65.0234 72.9076C68.1305 72.122 71.1074 70.7077 74.2493 70.0444C76.3928 69.5905 78.5888 69.9396 80.1596 71.5721C83.3015 74.8367 81.5657 80.764 79.1789 83.9939C74.2838 90.6458 65.223 95.4731 56.8911 94.5477C54.5997 94.2947 51.7878 94.3644 49.6614 95.3683C49.1146 95.6214 47.9689 96.3023 47.8735 97.0006C47.7606 97.8125 49.2013 98.9387 49.7394 99.3053C52.7598 101.348 57.5073 102.212 61.0482 102.579C73.2251 103.836 82.6331 98.956 91.3816 90.9251C94.8274 87.765 97.891 84.3081 101.241 81.0696C103.888 78.5119 107.369 75.4391 111.326 75.9717C111.682 76.0239 112.021 76.0939 112.359 76.19V34.315H110.302ZM69.8489 65.3655H66.5682V61.5421H69.8489V65.3655ZM69.8489 46.5362H66.5682V42.7128H69.8489V46.5362ZM82.6159 65.3915H79.3352V61.5681H82.6159V65.3915ZM82.6159 57.7012H79.3352V53.8775H82.6159V57.7012ZM82.6159 42.3112H79.3352V38.4878H82.6159V42.3112ZM82.6159 34.6206H79.3352V30.7972H82.6159V34.6206ZM89.2726 50.0018H85.9919V46.1871H89.2726V50.0018ZM89.2726 34.6206H85.9919V30.7972H89.2726V34.6206ZM89.2726 26.9212H85.9919V23.0978H89.2726V26.9212ZM102.031 65.3915H98.7502V61.5681H102.031V65.3915ZM102.031 50.0018H98.7502V46.1871H102.031V50.0018ZM102.031 42.3112H98.7502V38.4878H102.031V42.3112ZM108.688 57.7012H105.407V53.8775H108.688V57.7012ZM108.688 50.0018H105.407V46.1871H108.688V50.0018Z" fill="#FFF8BD"/>
<path d="M59.3652 7.60352V34.4983H71.5245V7.60352H59.3652ZM67.0896 28.4662H63.8088V24.6428H67.0896V28.4662ZM67.0896 19.6147H63.8088V15.7912H67.0896V19.6147Z" fill="#FFF8BD"/>
<path d="M53.8885 0H41.7725V34.4983H53.8969V0H53.8885ZM49.4794 28.4663H46.1987V24.6429H49.4794V28.4663ZM49.4794 19.6147H46.1987V15.7913H49.4794V19.6147ZM46.1987 10.7632V6.93973H49.4794V10.7632H46.1987Z" fill="white"/>
<path fill-rule="evenodd" clip-rule="evenodd" d="M113.288 81.0172C105.086 71.5546 93.3697 109.536 60.6582 106.149C37.3981 103.74 41.3473 89.1967 57.2646 90.96C63.6525 91.6669 71.6978 88.0705 76.2893 81.8376C78.6065 78.6951 79.6826 72.5585 74.9699 73.5537C72.401 74.0948 68.7992 75.6486 65.8743 76.3907C58.9137 78.1452 57.4902 77.2723 46.867 74.9939C23.6852 70.0268 18.4778 89.5895 0 80.956C7.67231 108.253 34.0132 126.803 62.9841 123.652C87.5285 120.98 106.909 103.504 113.288 81.0172Z" fill="#780D0D"/>
</svg>
