<svg width="98" height="22" viewBox="0 0 98 22" fill="none" xmlns="http://www.w3.org/2000/svg">
<path opacity="0.5" d="M10.0704 0.39812L5.29102 0.395264L17.978 18.513L20.3663 15.102L10.0704 0.39812Z" fill="#E35131"/>
<path d="M39.5526 14.7763H46.7317V7.59721H39.5526V14.7763Z" fill="#E35131"/>
<path d="M75.4566 14.7763H80.2446V7.59721H75.4566V14.7763Z" fill="#E35131"/>
<path d="M68.2747 14.7763H73.0627V7.59721H68.2747V14.7763Z" fill="#E35131"/>
<path fill-rule="evenodd" clip-rule="evenodd" d="M36.9672 0.426684H97.9995L82.9214 21.9583H21.8891L36.9672 0.426684ZM49.1257 5.20608L49.1228 17.1674L37.1586 17.1703V5.20322L49.1257 5.20608ZM63.4867 5.20322V17.1703H61.087V12.3823H53.9108V17.1703H51.5168L51.5196 5.20322H53.9108V9.99119H61.0899V5.20322H63.4867ZM82.6386 5.20322V17.1703H75.4595V19.5643H73.0655V17.1703H65.8836V5.20322H73.0655V2.80923H75.4595V5.20322H82.6386Z" fill="#E35131"/>
<path d="M5.29112 0.395264H0.511719L15.5898 21.9269L17.9781 18.513L5.29112 0.395264Z" fill="#E35131"/>
<path d="M23.9545 9.95978L17.2696 0.395264H14.8671L22.7518 11.6796L23.9545 9.95978Z" fill="#E35131"/>
</svg>
