<svg width="95" height="29" viewBox="0 0 95 29" fill="none" xmlns="http://www.w3.org/2000/svg">
<path d="M17.8282 5.09706C19.1637 5.09706 20.2465 4.01371 20.2465 2.67743C20.2465 1.34115 19.164 0.258057 17.8282 0.258057C16.4924 0.258057 15.4099 1.34141 15.4099 2.67769C15.4099 4.01396 16.4927 5.09706 17.8282 5.09706ZM20.0207 13.2518L22.6136 15.825C23.0369 16.2492 23.7238 16.2497 24.1479 15.8261C24.5718 15.4025 24.5723 14.7153 24.149 14.2912L20.0207 10.1962V13.2518ZM4.49324 26.986C4.18124 26.986 3.92828 27.2391 3.92828 27.5513C3.92828 27.8634 4.18124 28.1166 4.49324 28.1166C4.80524 28.1166 5.05821 27.8634 5.05821 27.5513C5.05847 27.2391 4.8055 26.986 4.49324 26.986ZM9.46168 26.1082C9.07873 26.7708 9.30503 27.6185 9.96709 28.0018C10.6294 28.3851 11.4766 28.1585 11.8598 27.496L17.2487 18.1529L15.2286 16.132L9.46168 26.1082ZM7.3261 17.9904C6.09415 17.2216 4.49221 17.563 3.74781 18.7526L1.18553 22.8478C0.441127 24.0375 0.8365 25.6254 2.06819 26.3942C3.30013 27.1631 4.90208 26.8217 5.64647 25.6321L8.2085 21.5369C8.95315 20.347 8.55804 18.7593 7.3261 17.9904ZM24.9477 26.1268C24.6777 24.9465 23.5162 20.2283 23.3204 19.343C23.1247 18.458 23.0449 18.4257 22.778 18.1671C22.511 17.9085 19.3426 14.7301 19.3426 14.7301C19.3426 14.7301 19.3426 7.45513 19.3426 7.17738C19.3426 6.89962 19.2051 6.74006 19.0262 6.6348C18.847 6.52954 18.5345 6.34851 17.6249 5.82067C16.8023 5.34352 16.6553 5.39654 16.5336 5.41102C16.3026 5.40636 16.0608 5.46507 15.8379 5.59386L11.1359 8.30987C10.6879 8.56848 10.4461 9.034 10.4883 9.47054C10.4849 9.50468 10.4831 9.53934 10.4831 9.57425V14.3682C10.4831 14.9677 10.9689 15.4537 11.568 15.4537C12.1671 15.4537 12.6529 14.9677 12.6529 14.3682V9.94019L14.8679 8.66081C14.8679 9.8114 14.8679 13.8184 14.8679 14.142C14.8679 14.5203 14.855 14.7143 15.1393 15.0013C15.4228 15.2884 20.8343 20.745 20.8343 20.745C20.8343 20.745 22.1465 26.1837 22.3259 26.8957C22.5053 27.6077 22.924 28.1169 23.6819 28.1169C24.6937 28.1166 25.2178 27.3072 24.9477 26.1268ZM9.58751 19.5026L11.5046 16.4333C11.6283 16.2352 11.5983 15.9931 11.4375 15.8925C11.2767 15.7919 11.046 15.8711 10.9222 16.0692L9.0052 19.1385C8.88143 19.3366 8.91147 19.5786 9.07226 19.6792C9.23305 19.7798 9.46375 19.7007 9.58751 19.5026Z" fill="#E35131"/>
<path d="M31.3483 7.66508C31.3483 9.41458 32.606 10.5622 34.283 10.5622C35.9599 10.5622 37.2257 9.35038 37.2257 7.66508C37.2257 5.91559 35.9599 4.76798 34.283 4.76798C32.5496 4.76798 31.3483 6.03596 31.3483 7.66508ZM32.3964 7.66508C32.3964 6.50143 33.2026 5.69088 34.283 5.69088C35.3472 5.69088 36.1776 6.50143 36.1776 7.66508C36.1776 8.77256 35.4681 9.63928 34.283 9.63928C33.2268 9.63928 32.3964 8.78861 32.3964 7.66508Z" fill="#E35131"/>
<path d="M40.8323 4.76798C40.4534 5.20134 40.018 5.03281 39.2198 5.36987C38.1153 5.84336 37.8492 7.09529 37.8492 8.275C37.8492 9.67941 38.599 10.5622 39.8165 10.5622C40.9613 10.5622 41.7192 9.71151 41.7192 8.70033C41.7192 7.61693 41.0661 6.92676 40.0664 6.92676C39.5343 6.92676 39.0183 7.20765 38.7925 7.60088H38.7764C38.8329 7.03109 39.0344 6.4934 39.5585 6.25265C40.2599 5.90756 40.8404 6.08412 41.3161 5.52235L40.8323 4.76798ZM38.8409 8.4676C38.9618 8.09844 39.3166 7.78546 39.8326 7.78546C40.4211 7.78546 40.7275 8.20277 40.7275 8.74046C40.7275 9.2621 40.3808 9.70348 39.7923 9.70348C39.2037 9.70348 38.849 9.1658 38.8409 8.4676Z" fill="#E35131"/>
<path d="M42.5242 10.4739H47.0956V11.3166H47.9663V9.61521H47.3616V6.86256H46.4345V9.61521H45.4025V6.86256H44.4753V9.61521H43.4514V6.86256H42.5242V10.4739Z" fill="#E35131"/>
<path d="M51.4249 9.46273C51.2153 9.63126 50.8444 9.79176 50.401 9.79176C49.8285 9.79176 49.3932 9.49483 49.3125 8.94911H51.9328C51.9731 8.81269 51.9892 8.67626 51.9892 8.45155C51.9892 7.44038 51.2072 6.77428 50.272 6.77428C49.0787 6.77428 48.3531 7.61693 48.3531 8.66823C48.3531 9.80781 49.1352 10.5622 50.3042 10.5622C50.8121 10.5622 51.3281 10.4177 51.6909 10.1128L51.4249 9.46273ZM50.2316 7.5447C50.7638 7.5447 51.0701 7.88979 51.0621 8.33117H49.2803C49.377 7.85769 49.6753 7.5447 50.2316 7.5447Z" fill="#E35131"/>
<path d="M52.736 12.0789H53.6632V10.3856C53.8728 10.506 54.1872 10.5622 54.5097 10.5622C55.6707 10.5622 56.4286 9.71151 56.4286 8.61206C56.4286 7.5447 55.7836 6.77428 54.7839 6.77428C54.3162 6.77428 53.8889 6.96689 53.6632 7.20765V6.86256H52.736V12.0789ZM54.4936 7.64101C55.1064 7.64101 55.445 8.05832 55.445 8.63613C55.445 9.23802 55.0741 9.70348 54.4291 9.70348C54.1227 9.70348 53.9131 9.65533 53.6632 9.49483V8.03424C53.8889 7.78546 54.1792 7.64101 54.4936 7.64101Z" fill="#E35131"/>
<path d="M57.006 8.66823C57.006 9.75164 57.78 10.5622 58.9813 10.5622C60.1826 10.5622 60.9565 9.75164 60.9565 8.66823C60.9565 7.58483 60.1826 6.77428 58.9813 6.77428C57.78 6.77428 57.006 7.58483 57.006 8.66823ZM57.9977 8.66823C57.9977 8.04227 58.433 7.64101 58.9813 7.64101C59.5456 7.64101 59.9729 8.05832 59.9729 8.66823C59.9729 9.2942 59.5537 9.70348 58.9813 9.70348C58.4169 9.70348 57.9977 9.27012 57.9977 8.66823Z" fill="#E35131"/>
<path d="M64.5082 9.2621C64.2744 9.51891 63.968 9.70348 63.573 9.70348C63.0247 9.70348 62.5249 9.31025 62.5249 8.66823C62.5249 8.03424 63.0167 7.64101 63.5327 7.64101C63.8632 7.64101 64.1615 7.72928 64.4356 7.99412L64.871 7.26382C64.5324 6.92676 64.0083 6.77428 63.4117 6.77428C62.3072 6.77428 61.5332 7.61693 61.5332 8.66823C61.5332 9.80781 62.3233 10.5622 63.5004 10.5622C64.089 10.5622 64.6372 10.3455 64.9436 9.93622L64.5082 9.2621Z" fill="#E35131"/>
<path d="M68.437 9.2621C68.2032 9.51891 67.8969 9.70348 67.5018 9.70348C66.9536 9.70348 66.4537 9.31025 66.4537 8.66823C66.4537 8.03424 66.9455 7.64101 67.4615 7.64101C67.792 7.64101 68.0904 7.72928 68.3645 7.99412L68.7998 7.26382C68.4612 6.92676 67.9372 6.77428 67.3406 6.77428C66.236 6.77428 65.462 7.61693 65.462 8.66823C65.462 9.80781 66.2521 10.5622 67.4292 10.5622C68.0178 10.5622 68.566 10.3455 68.8724 9.93622L68.437 9.2621Z" fill="#E35131"/>
<path d="M70.5438 10.4739L72.2369 8.18672V10.4739H73.164V6.86256H72.2369L70.5438 9.14975V6.86256H69.6166V10.4739H70.5438Z" fill="#E35131"/>
<path d="M75.1261 10.4739L76.8192 8.18672V10.4739H77.7464V6.86256H76.8192L75.1261 9.14975V6.86256H74.1989V10.4739H75.1261ZM74.7391 5.05689C74.7391 5.75508 75.1019 6.3008 76.0049 6.3008C76.8192 6.3008 77.2384 5.74706 77.2384 5.05689H76.3919C76.3919 5.35382 76.279 5.64273 76.0049 5.64273C75.6985 5.64273 75.5856 5.35382 75.5856 5.05689H74.7391Z" fill="#E35131"/>
<path d="M81.5305 9.2621C81.2967 9.51891 80.9903 9.70348 80.5953 9.70348C80.047 9.70348 79.5472 9.31025 79.5472 8.66823C79.5472 8.03424 80.039 7.64101 80.555 7.64101C80.8855 7.64101 81.1838 7.72928 81.4579 7.99412L81.8933 7.26382C81.5547 6.92676 81.0306 6.77428 80.434 6.77428C79.3295 6.77428 78.5555 7.61693 78.5555 8.66823C78.5555 9.80781 79.3456 10.5622 80.5227 10.5622C81.1113 10.5622 81.6595 10.3455 81.9659 9.93622L81.5305 9.2621Z" fill="#E35131"/>
<path d="M86.1446 6.86256H84.9756L83.6695 8.65218L85.1046 10.4739H86.3139L84.7498 8.57996L86.1446 6.86256ZM82.7101 10.4739H83.6372V6.86256H82.7101V10.4739Z" fill="#E35131"/>
<path d="M86.6336 8.66823C86.6336 9.75164 87.4076 10.5622 88.6089 10.5622C89.8102 10.5622 90.5842 9.75164 90.5842 8.66823C90.5842 7.58483 89.8102 6.77428 88.6089 6.77428C87.4076 6.77428 86.6336 7.58483 86.6336 8.66823ZM87.6253 8.66823C87.6253 8.04227 88.0606 7.64101 88.6089 7.64101C89.1732 7.64101 89.6006 8.05832 89.6006 8.66823C89.6006 9.2942 89.1813 9.70348 88.6089 9.70348C88.0445 9.70348 87.6253 9.27012 87.6253 8.66823Z" fill="#E35131"/>
<path d="M94.2326 9.46273C94.023 9.63126 93.6521 9.79176 93.2086 9.79176C92.6362 9.79176 92.2009 9.49483 92.1202 8.94911H94.7405C94.7808 8.81269 94.7969 8.67626 94.7969 8.45155C94.7969 7.44038 94.0149 6.77428 93.0797 6.77428C91.8864 6.77428 91.1608 7.61693 91.1608 8.66823C91.1608 9.80781 91.9429 10.5622 93.1119 10.5622C93.6198 10.5622 94.1358 10.4177 94.4986 10.1128L94.2326 9.46273ZM93.0393 7.5447C93.5715 7.5447 93.8778 7.88979 93.8698 8.33117H92.088C92.1847 7.85769 92.483 7.5447 93.0393 7.5447Z" fill="#E35131"/>
<path d="M31.2757 16.6934C31.2757 17.7768 32.0497 18.5874 33.251 18.5874C34.4523 18.5874 35.2263 17.7768 35.2263 16.6934C35.2263 15.61 34.4523 14.7995 33.251 14.7995C32.0497 14.7995 31.2757 15.61 31.2757 16.6934ZM32.2674 16.6934C32.2674 16.0675 32.7027 15.6662 33.251 15.6662C33.8153 15.6662 34.2427 16.0835 34.2427 16.6934C34.2427 17.3194 33.8234 17.7287 33.251 17.7287C32.6866 17.7287 32.2674 17.2953 32.2674 16.6934Z" fill="#E35131"/>
<path d="M38.7537 12.7932C38.3748 13.2266 37.9394 13.058 37.1413 13.3951C36.0367 13.8686 35.7707 15.1205 35.7707 16.3002C35.7707 17.7046 36.5205 18.5874 37.7379 18.5874C38.8827 18.5874 39.6406 17.7367 39.6406 16.7255C39.6406 15.6421 38.9875 14.952 37.9878 14.952C37.4557 14.952 36.9397 15.2329 36.714 15.6261H36.6978C36.7543 15.0563 36.9558 14.5186 37.4799 14.2779C38.1813 13.9328 38.7618 14.1093 39.2375 13.5476L38.7537 12.7932ZM36.7623 16.4928C36.8833 16.1236 37.238 15.8107 37.754 15.8107C38.3426 15.8107 38.6489 16.228 38.6489 16.7657C38.6489 17.2873 38.3022 17.7287 37.7137 17.7287C37.1251 17.7287 36.7704 17.191 36.7623 16.4928Z" fill="#E35131"/>
<path d="M40.0506 15.7545H40.9939V18.4991H42.3564C43.59 18.4991 44.0253 17.817 44.0253 17.1268C44.0253 16.4848 43.6625 15.8749 42.429 15.8749H41.9211V14.8878H40.0506V15.7545ZM42.3484 16.6132C42.8402 16.6132 43.0337 16.8299 43.0337 17.1589C43.0337 17.4879 42.8402 17.6966 42.3403 17.6966H41.9211V16.6132H42.3484Z" fill="#E35131"/>
<path d="M47.6142 17.4879C47.4045 17.6565 47.0337 17.817 46.5902 17.817C46.0178 17.817 45.5824 17.52 45.5018 16.9743H48.1221C48.1624 16.8379 48.1785 16.7015 48.1785 16.4768C48.1785 15.4656 47.3965 14.7995 46.4612 14.7995C45.268 14.7995 44.5424 15.6421 44.5424 16.6934C44.5424 17.833 45.3244 18.5874 46.4935 18.5874C47.0014 18.5874 47.5174 18.4429 47.8802 18.138L47.6142 17.4879ZM46.4209 15.5699C46.953 15.5699 47.2594 15.915 47.2513 16.3564H45.4696C45.5663 15.8829 45.8646 15.5699 46.4209 15.5699Z" fill="#E35131"/>
<path d="M48.4899 19.3418H49.3526V18.4991H51.9245V19.3418H52.7952V17.6404H52.1906V14.8878H49.5138L49.4574 15.7545C49.409 16.5731 49.2075 17.3034 48.9495 17.6404H48.4899V19.3418ZM50.3523 16.1236L50.3765 15.7545H51.2634V17.6404H49.917C50.0782 17.4157 50.2798 16.886 50.3523 16.1236Z" fill="#E35131"/>
<path d="M54.3324 18.4991L56.0255 16.2119V18.4991H56.9527V14.8878H56.0255L54.3324 17.175V14.8878H53.4053V18.4991H54.3324Z" fill="#E35131"/>
<path d="M60.503 18.4991H61.4302V14.8878H60.503V16.2521H58.9148V14.8878H57.9876V18.4991H58.9148V17.1188H60.503V18.4991Z" fill="#E35131"/>
<path d="M65.3057 17.4879C65.0961 17.6565 64.7252 17.817 64.2818 17.817C63.7093 17.817 63.274 17.52 63.1933 16.9743H65.8136C65.8539 16.8379 65.87 16.7015 65.87 16.4768C65.87 15.4656 65.088 14.7995 64.1528 14.7995C62.9595 14.7995 62.2339 15.6421 62.2339 16.6934C62.2339 17.833 63.016 18.5874 64.185 18.5874C64.693 18.5874 65.2089 18.4429 65.5717 18.138L65.3057 17.4879ZM64.1125 15.5699C64.6446 15.5699 64.9509 15.915 64.9429 16.3564H63.1611C63.2579 15.8829 63.5562 15.5699 64.1125 15.5699Z" fill="#E35131"/>
<path d="M69.1323 18.4991H70.0595V14.8878H69.1323V16.2521H67.544V14.8878H66.6168V18.4991H67.544V17.1188H69.1323V18.4991Z" fill="#E35131"/>
<path d="M72.0161 18.4991L73.7092 16.2119V18.4991H74.6364V14.8878H73.7092L72.0161 17.175V14.8878H71.0889V18.4991H72.0161Z" fill="#E35131"/>
<path d="M78.5173 17.4879C78.3076 17.6565 77.9368 17.817 77.4933 17.817C76.9209 17.817 76.4855 17.52 76.4049 16.9743H79.0252C79.0655 16.8379 79.0816 16.7015 79.0816 16.4768C79.0816 15.4656 78.2996 14.7995 77.3643 14.7995C76.1711 14.7995 75.4455 15.6421 75.4455 16.6934C75.4455 17.833 76.2276 18.5874 77.3966 18.5874C77.9045 18.5874 78.4205 18.4429 78.7833 18.138L78.5173 17.4879ZM77.324 15.5699C77.8562 15.5699 78.1625 15.915 78.1545 16.3564H76.3727C76.4694 15.8829 76.7677 15.5699 77.324 15.5699Z" fill="#E35131"/>
<path d="M33.9766 26.5243H34.9038V22.913H31.5014V26.5243H32.4286V23.7797H33.9766V26.5243Z" fill="#E35131"/>
<path d="M36.2164 23.8439C36.4824 23.7235 36.7485 23.5951 37.1677 23.5951C37.7079 23.5951 37.8691 23.9242 37.845 24.526C37.6676 24.3976 37.3451 24.2933 37.0226 24.2933C36.2889 24.2933 35.7004 24.6705 35.7004 25.465C35.7004 26.1632 36.176 26.5725 36.8372 26.5725C37.329 26.5725 37.716 26.3799 37.9095 26.107V26.5243H38.7157V24.3254C38.7157 23.3704 38.3368 22.8247 37.2645 22.8247C36.7888 22.8247 36.297 22.9852 35.9826 23.1698L36.2164 23.8439ZM37.1435 25.794C36.8533 25.794 36.6275 25.6415 36.6275 25.3687C36.6275 25.0637 36.9017 24.9193 37.208 24.9193C37.4741 24.9193 37.6837 24.9755 37.845 25.0958V25.465C37.7321 25.6255 37.5305 25.794 37.1435 25.794Z" fill="#E35131"/>
<path d="M42.4154 25.3125C42.1816 25.5693 41.8753 25.7539 41.4802 25.7539C40.932 25.7539 40.4321 25.3607 40.4321 24.7186C40.4321 24.0847 40.9239 23.6914 41.4399 23.6914C41.7704 23.6914 42.0688 23.7797 42.3429 24.0445L42.7782 23.3142C42.4396 22.9772 41.9156 22.8247 41.319 22.8247C40.2144 22.8247 39.4404 23.6673 39.4404 24.7186C39.4404 25.8582 40.2305 26.6126 41.4076 26.6126C41.9962 26.6126 42.5444 26.3959 42.8508 25.9866L42.4154 25.3125Z" fill="#E35131"/>
<path d="M46.3443 25.3125C46.1105 25.5693 45.8041 25.7539 45.409 25.7539C44.8608 25.7539 44.3609 25.3607 44.3609 24.7186C44.3609 24.0847 44.8527 23.6914 45.3687 23.6914C45.6993 23.6914 45.9976 23.7797 46.2717 24.0445L46.7071 23.3142C46.3685 22.9772 45.8444 22.8247 45.2478 22.8247C44.1432 22.8247 43.3693 23.6673 43.3693 24.7186C43.3693 25.8582 44.1594 26.6126 45.3365 26.6126C45.925 26.6126 46.4733 26.3959 46.7796 25.9866L46.3443 25.3125Z" fill="#E35131"/>
<path d="M47.806 23.8439C48.0721 23.7235 48.3381 23.5951 48.7574 23.5951C49.2975 23.5951 49.4588 23.9242 49.4346 24.526C49.2572 24.3976 48.9347 24.2933 48.6122 24.2933C47.8786 24.2933 47.29 24.6705 47.29 25.465C47.29 26.1632 47.7657 26.5725 48.4268 26.5725C48.9186 26.5725 49.3056 26.3799 49.4991 26.107V26.5243H50.3053V24.3254C50.3053 23.3704 49.9264 22.8247 48.8541 22.8247C48.3784 22.8247 47.8866 22.9852 47.5722 23.1698L47.806 23.8439ZM48.7332 25.794C48.4429 25.794 48.2172 25.6415 48.2172 25.3687C48.2172 25.0637 48.4913 24.9193 48.7977 24.9193C49.0637 24.9193 49.2734 24.9755 49.4346 25.0958V25.465C49.3217 25.6255 49.1202 25.794 48.7332 25.794Z" fill="#E35131"/>
<path d="M56.2948 22.913H55.1983L54.0857 24.6625L55.2951 26.5243H56.3915L55.0935 24.6625L56.2948 22.913ZM53.1182 26.5243H54.0454V22.913H53.1182V26.5243ZM52.0782 24.6625L50.7963 26.5243H51.9008L53.0779 24.6625L51.9976 22.913H50.8688L52.0782 24.6625Z" fill="#E35131"/>
<path d="M57.8991 26.5243L59.5922 24.2371V26.5243H60.5194V22.913H59.5922L57.8991 25.2002V22.913H56.9719V26.5243H57.8991Z" fill="#E35131"/>
<path d="M61.5542 28.1294H62.4814V26.436C62.691 26.5564 63.0055 26.6126 63.328 26.6126C64.4889 26.6126 65.2468 25.7619 65.2468 24.6625C65.2468 23.5951 64.6018 22.8247 63.6021 22.8247C63.1345 22.8247 62.7071 23.0173 62.4814 23.2581V22.913H61.5542V28.1294ZM63.3118 23.6914C63.9246 23.6914 64.2632 24.1087 64.2632 24.6865C64.2632 25.2884 63.8923 25.7539 63.2473 25.7539C62.941 25.7539 62.7313 25.7057 62.4814 25.5452V24.0847C62.7071 23.8359 62.9974 23.6914 63.3118 23.6914Z" fill="#E35131"/>
<path d="M65.8242 24.7186C65.8242 25.802 66.5982 26.6126 67.7995 26.6126C69.0008 26.6126 69.7748 25.802 69.7748 24.7186C69.7748 23.6352 69.0008 22.8247 67.7995 22.8247C66.5982 22.8247 65.8242 23.6352 65.8242 24.7186ZM66.8159 24.7186C66.8159 24.0927 67.2512 23.6914 67.7995 23.6914C68.3638 23.6914 68.7911 24.1087 68.7911 24.7186C68.7911 25.3446 68.3719 25.7539 67.7995 25.7539C67.2351 25.7539 66.8159 25.3205 66.8159 24.7186Z" fill="#E35131"/>
<path d="M70.5771 26.5243C70.9077 26.5243 71.5688 26.5644 72.0203 26.5644C73.1894 26.5644 73.7457 26.1873 73.7457 25.473C73.7457 25.0557 73.4796 24.7588 72.9717 24.6384V24.6223C73.3345 24.5662 73.6489 24.2532 73.6489 23.8198C73.6489 23.1618 73.0604 22.8728 72.0042 22.8728C71.4398 22.8728 70.8916 22.905 70.5771 22.913V26.5243ZM72.0848 24.9915C72.5202 24.9915 72.7701 25.136 72.7701 25.4088C72.7701 25.6576 72.5282 25.8261 72.1171 25.8261C71.8913 25.8261 71.6414 25.802 71.5043 25.794V24.9915H72.0848ZM72.0848 23.6192C72.4315 23.6192 72.6653 23.7476 72.6653 24.0124C72.6653 24.2933 72.4154 24.4297 72.109 24.4297H71.5043V23.6352C71.6011 23.6272 71.8671 23.6192 72.0848 23.6192Z" fill="#E35131"/>
</svg>
