<svg width="137" height="137" viewBox="0 0 137 137" fill="none" xmlns="http://www.w3.org/2000/svg">
<g style="mix-blend-mode:screen" opacity="0.5">
<path opacity="0.2" fill-rule="evenodd" clip-rule="evenodd" d="M60.6648 113.997C83.1121 128.995 109.503 137 136.5 137C172.666 137 207.353 122.439 232.946 96.8853C258.539 71.3319 272.944 36.6654 273 0.499619C273 -26.4976 264.994 -52.8885 249.996 -75.3359C234.997 -97.7833 213.678 -115.278 188.736 -125.61C163.794 -135.941 136.349 -138.644 109.87 -133.377C83.3919 -128.11 59.0699 -115.111 39.9801 -96.0207C20.8902 -76.9308 7.88974 -52.6083 2.62286 -26.1299C-2.64402 0.348633 0.0591583 27.7948 10.3905 52.737C20.7219 77.6792 38.2175 98.9977 60.6648 113.997Z" fill="#FFBD70"/>
<path opacity="0.4" fill-rule="evenodd" clip-rule="evenodd" d="M72.514 96.2628C91.4539 108.918 113.721 115.672 136.5 115.672C167.015 115.672 196.283 103.386 217.876 81.8251C239.47 60.2645 251.625 31.0145 251.672 0.499672C251.672 -22.2792 244.917 -44.5466 232.262 -63.4866C219.607 -82.4265 201.619 -97.1879 180.574 -105.905C159.529 -114.622 136.372 -116.903 114.031 -112.459C91.6901 -108.015 71.1684 -97.0464 55.0613 -80.9393C38.9542 -64.8322 27.9851 -44.3102 23.5412 -21.9689C19.0972 0.372276 21.378 23.53 30.0951 44.575C38.8122 65.6199 53.5741 83.6075 72.514 96.2628Z" fill="#FFBD70"/>
<path fill-rule="evenodd" clip-rule="evenodd" d="M84.3634 78.5291C99.796 88.8408 117.94 94.3439 136.5 94.3439C161.364 94.3439 185.212 84.333 202.807 66.765C220.402 49.1971 230.306 25.3638 230.345 0.499809C230.345 -18.0608 224.841 -36.2046 214.529 -51.6372C204.217 -67.0697 189.561 -79.0976 172.413 -86.2004C155.265 -93.3032 136.396 -95.1615 118.192 -91.5405C99.9884 -87.9195 83.267 -78.9823 70.1427 -65.8579C57.0183 -52.7336 48.0805 -36.0119 44.4595 -17.808C40.8385 0.396011 42.6969 19.2653 49.7998 36.4131C56.9026 53.5608 68.9309 68.2173 84.3634 78.5291Z" fill="#FFBD70"/>
</g>
</svg>
