<svg width="842" height="227" viewBox="0 0 842 227" fill="none" xmlns="http://www.w3.org/2000/svg">
<path d="M0 23V0H21C27.3513 0 32.5 5.14873 32.5 11.5C32.5 17.8513 27.3513 23 21 23H0Z" fill="white"/>
<path fill-rule="evenodd" clip-rule="evenodd" d="M0 92V69H54C60.3513 69 65.5 63.8513 65.5 57.5V53.5C65.5 49.3579 62.1421 46 58 46C53.8579 46 50.5 42.6421 50.5 38.5V34.5C50.5 28.1487 55.6487 23 62 23H153C159.351 23 164.5 28.1487 164.5 34.5C164.5 40.8513 159.351 46 153 46H113C106.649 46 101.5 51.1487 101.5 57.5C101.5 63.8513 106.649 69 113 69H131C137.351 69 142.5 74.1487 142.5 80.5V86C142.5 89.3137 139.814 92 136.5 92C133.186 92 130.5 94.6863 130.5 98V103.5C130.5 109.851 135.649 115 142 115H186C192.351 115 197.5 109.851 197.5 103.5C197.5 97.1487 192.351 92 186 92H182C175.649 92 170.5 86.8513 170.5 80.5C170.5 74.1487 175.649 69 182 69H214C220.351 69 225.5 63.8513 225.5 57.5V52C225.5 48.6863 222.814 46 219.5 46C216.186 46 213.5 43.3137 213.5 40V34.5C213.5 28.1487 218.649 23 225 23H312C318.351 23 323.5 28.1487 323.5 34.5V40C323.5 43.3137 320.814 46 317.5 46C314.186 46 311.5 48.6863 311.5 52V57.5C311.5 63.8513 316.649 69 323 69H361C367.351 69 372.5 74.1487 372.5 80.5C372.5 86.8513 367.351 92 361 92H359C352.649 92 347.5 97.1487 347.5 103.5C347.5 109.851 352.649 115 359 115H402C408.351 115 413.5 109.851 413.5 103.5V98C413.5 94.6863 410.814 92 407.5 92C404.186 92 401.5 89.3137 401.5 86V80.5C401.5 74.1487 406.649 69 413 69H450C456.351 69 461.5 63.8513 461.5 57.5C461.5 51.1487 456.351 46 450 46H448C441.649 46 436.5 40.8513 436.5 34.5C436.5 28.1487 441.649 23 448 23H510C516.351 23 521.5 28.1487 521.5 34.5C521.5 40.8513 516.351 46 510 46H508C501.649 46 496.5 51.1487 496.5 57.5C496.5 63.8513 501.649 69 508 69H546C552.351 69 557.5 74.1487 557.5 80.5V81.5C557.5 87.299 552.799 92 547 92C541.201 92 536.5 96.701 536.5 102.5V103.5C536.5 109.851 541.649 115 548 115H576C582.351 115 587.5 109.851 587.5 103.5C587.5 97.1487 592.649 92 599 92H601C607.351 92 612.5 86.8513 612.5 80.5C612.5 74.1487 607.351 69 601 69H584C577.649 69 572.5 63.8513 572.5 57.5C572.5 51.1487 577.649 46 584 46H755C761.351 46 766.5 51.1487 766.5 57.5V62C766.5 65.866 763.366 69 759.5 69C755.634 69 752.5 72.134 752.5 76V80.5C752.5 86.8513 757.649 92 764 92H781C787.351 92 792.5 97.1487 792.5 103.5C792.5 109.851 797.649 115 804 115H842V227H0V115H37C43.3513 115 48.5 109.851 48.5 103.5C48.5 97.1487 43.3513 92 37 92H0ZM497 92C503.351 92 508.5 97.1487 508.5 103.5C508.5 109.851 503.351 115 497 115H486C479.649 115 474.5 109.851 474.5 103.5C474.5 97.1487 479.649 92 486 92H497ZM636.5 80.5C636.5 74.1487 641.649 69 648 69H665C671.351 69 676.5 74.1487 676.5 80.5C676.5 86.8513 671.351 92 665 92H648C641.649 92 636.5 86.8513 636.5 80.5ZM260 46C253.649 46 248.5 51.1487 248.5 57.5C248.5 63.8513 253.649 69 260 69H266C272.351 69 277.5 63.8513 277.5 57.5C277.5 51.1487 272.351 46 266 46H260ZM225.5 103.5C225.5 109.851 230.649 115 237 115H266C272.351 115 277.5 109.851 277.5 103.5C277.5 97.1487 272.351 92 266 92H237C230.649 92 225.5 97.1487 225.5 103.5Z" fill="white"/>
<path d="M785.5 57.5C785.5 51.1487 790.649 46 797 46H814C820.351 46 825.5 51.1487 825.5 57.5C825.5 63.8513 820.351 69 814 69H797C790.649 69 785.5 63.8513 785.5 57.5Z" fill="white"/>
<path d="M377.5 23C383.851 23 389 28.1487 389 34.5C389 40.8513 383.851 46 377.5 46C371.149 46 366 40.8513 366 34.5C366 28.1487 371.149 23 377.5 23Z" fill="white"/>
</svg>
