<svg width="56" height="38" viewBox="0 0 56 38" fill="none" xmlns="http://www.w3.org/2000/svg">
<path d="M8.02576 0.658936C8.30091 0.734769 8.57607 0.811751 8.85001 0.899075C13.5877 2.40525 17.3991 5.33288 19.9352 9.01279C22.4454 10.1659 24.6483 11.8385 26.3829 13.8886L26.398 13.8988L26.3946 13.9012L26.398 13.9011L26.396 13.9042L26.3992 13.908L26.3933 13.9084L26.3924 13.9098C26.3958 13.9815 26.398 14.0522 26.398 14.124C26.398 15.9497 25.4622 17.5687 24.0198 18.5729C24.0162 18.4982 24.0137 18.4247 24.0137 18.35C24.0137 17.4371 24.2477 16.5764 24.6616 15.8184C23.2781 16.9149 21.5629 17.5291 19.804 17.6066C19.861 17.5181 19.9192 17.4296 19.9798 17.3423C20.365 16.7933 20.8114 16.3062 21.3047 15.8835C19.6752 16.0823 18.0207 15.9212 16.4755 15.4235C16.4986 15.4072 16.5216 15.3908 16.5445 15.3744C16.6363 15.3091 16.7285 15.2435 16.8234 15.181C17.2246 14.9156 17.6383 14.6798 18.0616 14.4733C16.1334 14.0691 14.3103 13.3003 12.7058 12.2213C12.89 12.1546 13.0743 12.0903 13.2634 12.0305C13.9773 11.8063 14.6964 11.6368 15.4157 11.5197C13.4586 10.4229 11.7275 8.99543 10.3106 7.31504C10.5591 7.29551 10.8088 7.27712 11.0609 7.26793C11.3013 7.25866 11.5409 7.25375 11.7794 7.25313C10.1079 5.29322 8.83506 3.05359 8.02576 0.658936Z" fill="#E35131"/>
<path d="M47.9812 0.658936C47.706 0.734769 47.4309 0.811751 47.1569 0.899075C42.4193 2.40521 38.608 5.33271 36.0719 9.01247C33.5613 10.1656 31.3582 11.8383 29.6241 13.8886L29.6089 13.8988L29.6123 13.9012L29.6089 13.9011L29.6109 13.9042L29.6077 13.908L29.6137 13.9084L29.6146 13.9098C29.6112 13.9815 29.6089 14.0522 29.6089 14.124C29.6089 15.9497 30.5447 17.5687 31.9871 18.5729C31.9908 18.4982 31.9932 18.4247 31.9932 18.35C31.9932 17.4371 31.7592 16.5764 31.3453 15.8184C32.7288 16.9149 34.4441 17.5291 36.2029 17.6066C36.1459 17.5181 36.0878 17.4296 36.0272 17.3423C35.6419 16.7933 35.1954 16.3062 34.702 15.8835C36.3316 16.0823 37.9861 15.9213 39.5314 15.4235C39.5084 15.4071 39.4853 15.3908 39.4623 15.3744C39.3705 15.309 39.2785 15.2435 39.1835 15.181C38.7824 14.9156 38.3687 14.6798 37.9454 14.4733C39.8736 14.0691 41.6966 13.3003 43.3011 12.2213C43.1169 12.1546 42.9327 12.0903 42.7436 12.0305C42.0297 11.8063 41.3105 11.6368 40.5912 11.5197C42.5483 10.4229 44.2795 8.99543 45.6963 7.31504C45.4478 7.29551 45.1981 7.27712 44.946 7.26793C44.7056 7.25866 44.4661 7.25375 44.2275 7.25313C45.899 5.29322 47.1719 3.05359 47.9812 0.658936Z" fill="#E35131"/>
<path d="M23.1956 7.53795C23.438 8.91559 25.1204 10.6563 27.9786 11.7076C30.8623 10.6494 32.5653 8.90525 32.8126 7.52761C33.0962 8.95696 31.3399 11.1217 27.9786 12.3557C24.6489 11.1308 22.9143 8.96959 23.1956 7.53795Z" fill="#E35131"/>
<path d="M32.432 6.05805C31.935 4.65628 29.3714 4.24724 28.0016 4.24724C26.6501 4.24724 24.0816 4.64823 23.5774 6.05805C23.4816 6.32576 23.4622 6.6268 23.5143 6.94622C23.741 8.32386 25.3119 10.0646 27.9798 11.1159C30.672 10.0565 32.2623 8.31237 32.4914 6.93588C32.5447 6.6199 32.5253 6.32232 32.432 6.05805Z" fill="#E35131"/>
<path d="M9.00771 24.788C10.3513 24.788 10.6899 23.8366 10.6899 22.6472H12.2864C12.3106 23.8495 12.0577 24.9069 10.9186 25.5146L12.5634 28.2154V28.3819H10.846L9.47829 26.0379C9.33316 26.0854 9.12646 26.0984 8.98133 26.0984H8.58111V28.3819H6.89891V22.6581H8.58111V24.788H9.00771Z" fill="#E35131"/>
<path fill-rule="evenodd" clip-rule="evenodd" d="M19.787 25.4778C19.787 23.9187 18.8679 22.4916 17.1615 22.4916C16.4116 22.4916 15.6508 22.8246 15.3231 23.5403C15.3231 22.444 14.1863 22.4569 13.399 22.6235L13.41 23.7306C13.9669 23.6994 13.963 23.9861 13.9568 24.4434C13.9561 24.4936 13.9554 24.5458 13.9554 24.5999V31.3336H15.6486V28.144C17.6826 29.1539 19.787 27.7505 19.787 25.4778ZM18.0828 25.4778C18.0828 26.9288 16.8008 27.4651 15.6024 26.7623V25.2637C15.6134 24.5869 16.0488 23.9663 16.8118 23.9555C17.6716 23.9555 18.0828 24.7167 18.0828 25.4778Z" fill="#E35131"/>
<path fill-rule="evenodd" clip-rule="evenodd" d="M21.0229 28.3927V22.6581H22.6435V24.3361H23.611C24.9898 24.3361 26.1992 24.8961 26.1992 26.3709C26.1992 27.8218 24.9656 28.3927 23.611 28.3927H21.0229ZM22.6435 25.5838V27.1537H23.5868C24.1916 27.1537 24.5676 26.8444 24.5676 26.3687C24.5676 25.88 24.1916 25.5838 23.5868 25.5838H22.6435Z" fill="#E35131"/>
<path d="M27.2041 22.6689H28.7764V28.3927H27.2041V22.6689Z" fill="#E35131"/>
<path d="M32.6246 26.2152L32.8313 24.122V24.1198H34.4629V28.3906H36.1209V22.6559H31.3668L30.9666 26.1546C30.883 26.9655 30.7863 27.2985 29.8539 27.1904L29.8055 28.3927C31.8506 28.6652 32.4553 28.2132 32.6246 26.2152Z" fill="#E35131"/>
<path fill-rule="evenodd" clip-rule="evenodd" d="M37.6954 28.3927V22.6581H39.316V24.3361H40.2836C41.6623 24.3361 42.8718 24.8961 42.8718 26.3709C42.8718 27.8218 41.6382 28.3927 40.2836 28.3927H37.6954ZM39.316 27.1537H40.2594C40.8641 27.1537 41.2401 26.8444 41.2401 26.3687C41.2401 25.88 40.8641 25.5838 40.2594 25.5838H39.316V27.1537Z" fill="#E35131"/>
<path fill-rule="evenodd" clip-rule="evenodd" d="M43.8063 24.6453C43.8063 25.3697 44.2769 26.0357 44.919 26.3341L43.5381 28.2132V28.3927H45.3412L46.588 26.6563H47.3994V28.3927H49.1058V22.6581H45.9107C44.5804 22.671 43.8063 23.6095 43.8063 24.6453ZM47.3994 23.9187V25.3719H46.4077C45.8514 25.3719 45.5127 25.0734 45.5127 24.6691C45.5127 24.2647 45.8382 23.9187 46.4077 23.9187H47.3994Z" fill="#E35131"/>
<path fill-rule="evenodd" clip-rule="evenodd" d="M3.45312 34.8994C3.86653 35.0399 4.1436 35.3989 4.1436 35.8357C4.1436 36.8412 3.25522 36.9428 2.47678 36.9428H0.605469V33.1522H2.19092C2.92757 33.1522 3.95889 33.1824 3.95889 34.1901C3.96109 34.4712 3.79396 34.8064 3.45312 34.8994ZM2.27228 34.588C2.4548 34.588 2.64611 34.5577 2.64611 34.3393C2.64611 34.1058 2.46359 34.0733 2.27228 34.0733H1.90725V34.588H2.27228ZM2.33605 35.9762C2.53396 35.9762 2.83522 35.9762 2.83522 35.6886C2.83522 35.3924 2.55815 35.3686 2.33605 35.3686H1.90725V35.9762H2.33605Z" fill="#E35131"/>
<path fill-rule="evenodd" clip-rule="evenodd" d="M4.67355 35.0399C4.67355 36.3655 5.69827 37.0293 6.72079 37.0207C7.73671 37.012 8.74383 36.359 8.74383 35.0399C8.74383 33.7144 7.71912 33.0592 6.6966 33.0592C5.68068 33.0592 4.67355 33.7209 4.67355 35.0399ZM7.40247 35.0399C7.40247 35.5784 7.06163 35.8508 6.72079 35.8595C6.37335 35.866 6.02371 35.5935 6.02371 35.0399C6.02371 34.4864 6.37116 34.2117 6.72079 34.2204C7.06163 34.229 7.40247 34.5015 7.40247 35.0399Z" fill="#E35131"/>
<path d="M9.37934 33.3792C9.72018 33.1997 10.2919 33.0916 10.8636 33.0916C11.697 33.0916 12.5305 33.3403 12.5305 34.1533C12.5305 34.5037 12.3479 34.7999 11.9829 34.9015C12.4271 35.0421 12.7372 35.3924 12.7372 35.8616C12.7372 36.759 11.8576 37.0466 10.945 37.0466C10.3095 37.0466 9.6674 36.9061 9.27159 36.7417L9.33536 35.7189C9.52667 35.7968 10.2237 36.0065 10.7317 36.0152C11.0571 36.0152 11.31 35.946 11.31 35.7103C11.31 35.4288 10.9984 35.429 10.7686 35.4291L10.0962 35.4292V34.5642H10.6921C10.89 34.5642 11.1055 34.5491 11.1055 34.3155C11.1055 34.1123 10.8922 34.0431 10.6218 34.0431C10.3117 34.0431 9.72458 34.136 9.44091 34.2766L9.37934 33.3792Z" fill="#E35131"/>
<path d="M14.758 35.4919L15.5584 36.1709H15.6596L16.4776 35.4919V36.919H17.7706V33.1759H17.3748L15.6134 34.735L13.8608 33.1759H13.465V36.919H14.758V35.4919Z" fill="#E35131"/>
<path fill-rule="evenodd" clip-rule="evenodd" d="M20.5479 37.0207C19.5254 37.0293 18.5006 36.3655 18.5006 35.0399C18.5006 33.7209 19.5078 33.0592 20.5237 33.0592C21.5462 33.0592 22.5709 33.7144 22.5709 35.0399C22.5709 36.359 21.5616 37.012 20.5479 37.0207ZM20.5479 35.8595C20.8887 35.8508 21.2296 35.5784 21.2296 35.0399C21.2296 34.5015 20.8887 34.229 20.5479 34.2204C20.1982 34.2117 19.8508 34.4864 19.8508 35.0399C19.8486 35.5935 20.1982 35.866 20.5479 35.8595Z" fill="#E35131"/>
<path d="M27.479 33.1759C27.5428 33.7771 27.4944 34.4864 26.7336 34.4864H26.6676V33.1673H25.3834V34.4864H25.335C24.5588 34.4864 24.5104 33.7771 24.5742 33.1759H23.3054C23.235 33.9176 23.2988 34.6183 23.9959 35.0399L23.0129 36.7958V36.9363H24.3697L25.0997 35.4616C25.1701 35.4919 25.2493 35.5156 25.3372 35.5156H25.3856V36.9363H26.6698V35.5156H26.7336C26.8061 35.5156 26.8853 35.4919 26.9645 35.4616L27.6857 36.9363H29.0491V36.7958L28.0573 35.0399C28.772 34.6183 28.8358 33.9176 28.7632 33.1759H27.479Z" fill="#E35131"/>
<path d="M33.5394 33.1759V36.9363H32.231V35.5567H31.0259V36.9363H29.7242V33.1759H31.0259V34.4172H32.231V33.1759H33.5394Z" fill="#E35131"/>
<path fill-rule="evenodd" clip-rule="evenodd" d="M34.2694 35.0399C34.2694 36.3655 35.2941 37.0293 36.3167 37.0207C37.3326 37.012 38.3397 36.359 38.3397 35.0399C38.3397 33.7144 37.315 33.0592 36.2925 33.0592C35.2766 33.0592 34.2694 33.7209 34.2694 35.0399ZM36.9983 35.0399C36.9983 35.5784 36.6575 35.8508 36.3167 35.8595C35.967 35.866 35.6174 35.5935 35.6196 35.0399C35.6196 34.4864 35.967 34.2117 36.3167 34.2204C36.6575 34.229 36.9983 34.5015 36.9983 35.0399Z" fill="#E35131"/>
<path d="M41.559 34.642C41.4644 34.3544 41.2182 34.2139 40.9565 34.2139C40.5827 34.2052 40.1956 34.4864 40.1956 35.0399C40.1956 35.5784 40.5695 35.866 40.9257 35.8746C41.1962 35.8833 41.4644 35.7254 41.5612 35.3989H42.8454C42.7113 36.4822 41.7833 37.0207 40.8553 37.0142C39.8482 37.0055 38.8477 36.3503 38.8477 35.0399C38.8477 33.7057 39.8878 33.0505 40.9015 33.0505C41.8053 33.0505 42.6937 33.5803 42.8366 34.642H41.559Z" fill="#E35131"/>
<path d="M44.2571 34.3307V36.9212H45.5677V34.3307H46.5902V33.1759H43.2346V34.3307H44.2571Z" fill="#E35131"/>
<path fill-rule="evenodd" clip-rule="evenodd" d="M50.7441 35.3664H48.3714C48.4352 35.8573 48.864 35.9676 49.3235 35.9676C49.7765 35.9676 50.3461 35.8508 50.6165 35.7254L50.7661 36.6855C50.2977 36.8953 49.7677 37.0293 49.2356 37.0358C47.958 37.0358 47.0234 36.3179 47.0234 35.0399C47.0234 33.6755 48.0701 33.0743 49.0531 33.0743C50.5154 33.0981 51.0871 34.0409 50.7441 35.3664ZM49.6182 34.5707C49.6578 34.2269 49.3257 34.0863 49.0465 34.0863C48.7606 34.0863 48.4439 34.2506 48.3802 34.5707H49.6182Z" fill="#E35131"/>
<path d="M51.6017 36.9428H51.9425L54.0997 35.267V36.9363H55.4015V33.1608H55.0123L52.9035 34.7913V33.1759H51.6017V36.9428Z" fill="#E35131"/>
<path d="M53.6401 32.8408C52.8463 32.8408 52.3867 32.4191 52.3625 31.6082L53.1255 31.5304C53.1409 31.7963 53.3147 31.9282 53.6247 31.9282C53.9348 31.9282 54.1239 31.8353 54.1723 31.5304C54.3989 31.5435 54.6139 31.5696 54.8318 31.596C54.8654 31.6001 54.8992 31.6042 54.9331 31.6082C54.9023 32.4191 54.4581 32.8408 53.6401 32.8408Z" fill="#E35131"/>
</svg>
