<svg width="149" height="26" viewBox="0 0 149 26" fill="none" xmlns="http://www.w3.org/2000/svg">
<path fill-rule="evenodd" clip-rule="evenodd" d="M2.57619 14.5905H7.41371L8.75905 20.935H10.1616L5.83937 0.501099H4.3509L0 20.935H1.25947L2.57619 14.5905ZM7.18471 13.4188H2.80519L4.55127 4.95942C4.64669 4.4831 4.73256 4.00678 4.80889 3.53047C4.90431 3.0351 4.9711 2.61594 5.00926 2.27299H5.06651C5.08559 2.61594 5.12376 3.04463 5.18101 3.55905C5.23826 4.07347 5.31459 4.54978 5.41 4.98799L7.18471 13.4188Z" fill="#E35131"/>
<path fill-rule="evenodd" clip-rule="evenodd" d="M13.7289 20.935V12.9329H15.0456C16.6104 12.9329 17.8603 12.4185 18.7954 11.3897C19.7495 10.3608 20.2266 8.72231 20.2266 6.4741C20.2266 4.39736 19.7782 2.88268 18.8813 1.93005C17.9844 0.977415 16.744 0.501099 15.1601 0.501099H12.2977V20.935H13.7289ZM13.7289 11.7612V1.67284H15.1887C16.3337 1.67284 17.2211 2.06342 17.8508 2.84457C18.4805 3.62573 18.7954 4.86415 18.7954 6.55984C18.7954 8.42699 18.4614 9.76068 17.7935 10.5609C17.1447 11.3611 16.2287 11.7612 15.0456 11.7612H13.7289Z" fill="#E35131"/>
<path d="M24.0717 0.501099V20.935H22.6405V0.501099H24.0717Z" fill="#E35131"/>
<path fill-rule="evenodd" clip-rule="evenodd" d="M33.4096 20.935L36.9018 13.1044H38.7337V20.935H40.9378V0.501099H37.646C36.8445 0.501099 36.0812 0.634466 35.3561 0.901203C34.6309 1.16794 33.9916 1.56804 33.4382 2.10152C32.9039 2.63499 32.4745 3.31136 32.1501 4.13063C31.8448 4.93084 31.6922 5.86442 31.6922 6.93136C31.6922 8.45557 31.9689 9.66542 32.5223 10.5609C33.0757 11.4373 33.8008 12.1042 34.6977 12.5614L30.862 20.935H33.4096ZM37.5601 2.35873H38.7337V11.2754H37.5601C37.0831 11.2754 36.6251 11.2087 36.1862 11.0753C35.7663 10.9229 35.3942 10.6752 35.0698 10.3323C34.7645 9.98931 34.5164 9.54157 34.3256 8.98905C34.1538 8.43652 34.068 7.75063 34.068 6.93136C34.068 6.07399 34.1634 5.35952 34.3542 4.78794C34.5641 4.19731 34.8313 3.73052 35.1557 3.38757C35.4801 3.02557 35.8522 2.76836 36.272 2.61594C36.6919 2.44447 37.1212 2.35873 37.5601 2.35873Z" fill="#E35131"/>
<path fill-rule="evenodd" clip-rule="evenodd" d="M63.0321 23.7644H61.0284V20.9351H54.8455V23.7644H52.8418V19.106H53.7292C54.0536 18.3439 54.3112 17.5056 54.5021 16.5911C54.6929 15.6575 54.836 14.7049 54.9314 13.7332C55.0459 12.7424 55.1127 11.7422 55.1318 10.7324C55.17 9.70355 55.189 8.71281 55.189 7.76018V6.53128H61.8871V19.106H63.0321V23.7644ZM59.6831 8.33175H57.1927V8.58897C57.1927 9.35107 57.1737 10.1894 57.1355 11.1039C57.1164 11.9994 57.0592 12.9139 56.9637 13.8475C56.8683 14.7811 56.7347 15.7051 56.563 16.6197C56.3913 17.5151 56.1527 18.3439 55.8474 19.106H59.6831V8.33175Z" fill="#E35131"/>
<path fill-rule="evenodd" clip-rule="evenodd" d="M72.7357 19.9634C72.2778 20.3254 71.753 20.6112 71.1614 20.8208C70.5698 21.0303 69.9115 21.1351 69.1863 21.1351C67.6979 21.1351 66.5243 20.5635 65.6655 19.4204C64.8068 18.2582 64.3774 16.5625 64.3774 14.3333C64.3774 13.1711 64.4538 12.1042 64.6064 11.1325C64.7782 10.1608 65.0358 9.32249 65.3793 8.61755C65.7419 7.89355 66.1999 7.33149 66.7533 6.93139C67.3067 6.53128 67.965 6.33123 68.7283 6.33123C69.3199 6.33123 69.8638 6.45507 70.3599 6.70275C70.8561 6.93139 71.2759 7.31244 71.6194 7.84591C71.9629 8.37939 72.2301 9.07481 72.4209 9.93218C72.6117 10.7705 72.7071 11.7993 72.7071 13.0187V14.2476H66.696C66.696 15.8861 66.9155 17.1245 67.3544 17.9629C67.8124 18.8012 68.4898 19.2203 69.3867 19.2203C70.0164 19.2203 70.5698 19.1155 71.0469 18.906C71.5431 18.6773 71.9343 18.4582 72.2205 18.2487L72.7357 19.9634ZM68.7283 8.16028C68.0414 8.16028 67.5547 8.55086 67.2685 9.33202C66.9823 10.0941 66.801 11.123 66.7246 12.4185H70.4172C70.4172 11.8089 70.3886 11.2468 70.3313 10.7324C70.2741 10.1989 70.1786 9.74165 70.0451 9.3606C69.9306 8.97955 69.7588 8.68423 69.5298 8.47465C69.3199 8.26507 69.0527 8.16028 68.7283 8.16028Z" fill="#E35131"/>
<path d="M51.5537 6.53128V20.9351H49.3497V14.4762H46.0293V20.9351H43.7966V6.53128H46.0293V12.6472H49.3497V6.53128H51.5537Z" fill="#E35131"/>
<path d="M77.2298 13.7618V20.9351H74.9971V6.53128H77.2298V13.1902L80.6933 6.53128H82.9546L79.3766 13.3045L83.4699 20.9351H81.0368L77.2298 13.7618Z" fill="#E35131"/>
<path d="M88.7081 21.1351C87.1624 21.1351 85.9507 20.5254 85.0728 19.3061C84.195 18.0677 83.7561 16.21 83.7561 13.7332C83.7561 12.6091 83.8611 11.5898 84.071 10.6752C84.3 9.7607 84.6244 8.98907 85.0442 8.36033C85.4831 7.71254 86.0174 7.21718 86.6472 6.87423C87.296 6.51223 88.0402 6.33123 88.8799 6.33123C89.5287 6.33123 90.0535 6.40744 90.4542 6.55986C90.855 6.69323 91.2175 6.8647 91.5419 7.07428L91.2271 9.18912C90.9217 8.92239 90.5592 8.69376 90.1393 8.50323C89.7386 8.29365 89.3092 8.18886 88.8512 8.18886C88.0498 8.18886 87.3914 8.6366 86.8762 9.53207C86.3609 10.4275 86.1033 11.7898 86.1033 13.6189C86.1033 15.4289 86.3132 16.8292 86.733 17.82C87.172 18.7917 87.8494 19.2775 88.7654 19.2775C89.3188 19.2775 89.7959 19.1918 90.1966 19.0203C90.5973 18.8298 90.9313 18.6202 91.1984 18.3915L91.7137 20.0491C91.332 20.373 90.9027 20.6398 90.4256 20.8493C89.9485 21.0399 89.376 21.1351 88.7081 21.1351Z" fill="#E35131"/>
<path d="M100.021 20.935V10.1608L106.29 20.935H107.893L101.481 9.93215L107.377 0.501099H106.003L100.021 10.0465V0.501099H98.5898V20.935H100.021Z" fill="#E35131"/>
<path fill-rule="evenodd" clip-rule="evenodd" d="M115.531 20.9351C115.473 20.7445 115.407 20.5064 115.33 20.2206C115.273 19.9158 115.225 19.5061 115.187 18.9917C114.844 19.6776 114.414 20.2206 113.899 20.6207C113.384 21.0208 112.764 21.2209 112.038 21.2209C111.065 21.2209 110.273 20.8589 109.663 20.1349C109.052 19.3918 108.747 18.363 108.747 17.0483C108.747 15.5051 109.157 14.3429 109.978 13.5617C110.798 12.7615 111.991 12.3614 113.556 12.3614H115.13V10.5609C115.13 9.45586 114.93 8.65565 114.529 8.16028C114.128 7.66491 113.527 7.41723 112.725 7.41723C112.115 7.41723 111.542 7.56012 111.008 7.84591C110.474 8.11265 110.035 8.4937 109.691 8.98907L109.319 7.70302C109.605 7.32196 110.035 6.98854 110.607 6.70275C111.199 6.39791 111.905 6.24549 112.725 6.24549C113.928 6.24549 114.844 6.58844 115.473 7.27433C116.122 7.94118 116.447 8.98907 116.447 10.418V18.2772C116.447 18.7726 116.475 19.2775 116.533 19.7919C116.59 20.2873 116.666 20.6683 116.762 20.9351H115.531ZM112.325 20.1349C112.993 20.1349 113.556 19.8586 114.014 19.3061C114.491 18.7535 114.863 18.0867 115.13 17.3055V13.3331H113.584C112.382 13.3331 111.495 13.6189 110.922 14.1904C110.35 14.762 110.063 15.6765 110.063 16.934C110.063 17.9629 110.264 18.7535 110.665 19.3061C111.084 19.8586 111.638 20.1349 112.325 20.1349Z" fill="#E35131"/>
<path fill-rule="evenodd" clip-rule="evenodd" d="M121.931 20.8493C122.389 21.078 122.895 21.1923 123.448 21.1923C124.784 21.1923 125.862 20.5445 126.683 19.2489C127.503 17.9343 127.913 15.9528 127.913 13.3045C127.913 12.2566 127.828 11.304 127.656 10.4466C127.484 9.57018 127.236 8.82712 126.912 8.21744C126.587 7.5887 126.186 7.10286 125.709 6.75991C125.232 6.41697 124.698 6.24549 124.106 6.24549C123.305 6.24549 122.637 6.52175 122.103 7.07428C121.568 7.60775 121.139 8.21744 120.815 8.90333L120.7 6.53128H119.527V25.3934H120.872V19.9348C121.139 20.2968 121.492 20.6017 121.931 20.8493ZM125.738 18.5059C125.185 19.5919 124.45 20.1349 123.534 20.1349C122.885 20.1349 122.351 19.992 121.931 19.7062C121.511 19.4204 121.158 18.9822 120.872 18.3915V10.3323C121.025 9.95123 121.206 9.58923 121.416 9.24628C121.626 8.88428 121.855 8.56991 122.103 8.30318C122.37 8.03644 122.647 7.82686 122.933 7.67444C123.238 7.50296 123.553 7.41723 123.877 7.41723C124.717 7.41723 125.375 7.94118 125.852 8.98907C126.33 10.037 126.568 11.5135 126.568 13.4188C126.568 15.7051 126.291 17.4008 125.738 18.5059Z" fill="#E35131"/>
<path d="M133.589 7.64585V20.9351H132.244V7.64585H128.895V6.53127H136.91V7.64585H133.589Z" fill="#E35131"/>
<path fill-rule="evenodd" clip-rule="evenodd" d="M140.411 6.53127H139.065V20.9351H141.384C142.739 20.9351 143.846 20.554 144.704 19.7919C145.563 19.0298 145.992 17.8866 145.992 16.3624C145.992 14.8573 145.582 13.7332 144.761 12.9901C143.941 12.2471 142.844 11.8755 141.47 11.8755H140.411V6.53127ZM140.411 19.8776V12.933H141.412C142.443 12.933 143.244 13.2092 143.817 13.7617C144.389 14.2952 144.676 15.1716 144.676 16.391C144.676 17.6294 144.361 18.5249 143.731 19.0774C143.101 19.6109 142.281 19.8776 141.269 19.8776H140.411Z" fill="#E35131"/>
<path d="M147.538 20.9351H148.855V6.53127H147.538V20.9351Z" fill="#E35131"/>
</svg>
