<svg width="141" height="35" viewBox="0 0 141 35" fill="none" xmlns="http://www.w3.org/2000/svg">
<path d="M34.2148 17.2629C34.2148 26.7977 26.6062 34.5252 17.2224 34.5252C7.83856 34.5252 0.22998 26.7953 0.22998 17.2629C0.22998 7.72801 7.83856 0.000574401 17.2224 0.000574401C26.6062 0.000574401 34.2148 7.73048 34.2148 17.2629ZM93.068 0.218459H101.221V34.3147H89.879V19.7388L75.3007 34.3147H67.1251V0.218459H78.6556V14.6012L93.068 0.218459ZM61.7721 0.218459V34.3147C61.7721 34.3147 56.5553 34.5821 54.6909 34.5252C42.945 34.1686 37.4286 26.7977 37.4286 17.2678C37.4286 7.73543 44.0245 0.371968 54.6909 0.0104803C56.5974 -0.0563702 61.7721 0.218459 61.7721 0.218459ZM129.46 11.7316H118.412V22.7793L106.874 34.3172V0.191223H140.997L129.46 11.7316ZM134.582 18.8524C131.039 18.8524 128.165 21.7245 128.165 25.2701C128.165 27.2137 129.029 28.9543 130.395 30.1304L134.582 34.3172L138.769 30.1304C140.133 28.9543 141 27.2137 141 25.2701C141 21.7245 138.125 18.8524 134.582 18.8524ZM134.582 27.7757C133.198 27.7757 132.077 26.6541 132.077 25.2701C132.077 23.886 133.198 22.7644 134.582 22.7644C135.966 22.7644 137.088 23.886 137.088 25.2701C137.088 26.6541 135.966 27.7757 134.582 27.7757Z" fill="#E35131"/>
</svg>
